%TF.GenerationSoftware,KiCad,Pcbnew,10.0.4*%
%TF.CreationDate,2026-07-07T21:02:38-07:00*%
%TF.ProjectId,xmit,786d6974-2e6b-4696-9361-645f70636258,rev?*%
%TF.SameCoordinates,Original*%
%TF.FileFunction,Copper,L2,Inr*%
%TF.FilePolarity,Positive*%
%FSLAX46Y46*%
G04 Gerber Fmt 4.6, Leading zero omitted, Abs format (unit mm)*
G04 Created by KiCad (PCBNEW 10.0.4) date 2026-07-07 21:02:38*
%MOMM*%
%LPD*%
G01*
G04 APERTURE LIST*
G04 Aperture macros list*
%AMRoundRect*
0 Rectangle with rounded corners*
0 $1 Rounding radius*
0 $2 $3 $4 $5 $6 $7 $8 $9 X,Y pos of 4 corners*
0 Add a 4 corners polygon primitive as box body*
4,1,4,$2,$3,$4,$5,$6,$7,$8,$9,$2,$3,0*
0 Add four circle primitives for the rounded corners*
1,1,$1+$1,$2,$3*
1,1,$1+$1,$4,$5*
1,1,$1+$1,$6,$7*
1,1,$1+$1,$8,$9*
0 Add four rect primitives between the rounded corners*
20,1,$1+$1,$2,$3,$4,$5,0*
20,1,$1+$1,$4,$5,$6,$7,0*
20,1,$1+$1,$6,$7,$8,$9,0*
20,1,$1+$1,$8,$9,$2,$3,0*%
G04 Aperture macros list end*
%TA.AperFunction,ComponentPad*%
%ADD10C,1.400000*%
%TD*%
%TA.AperFunction,HeatsinkPad*%
%ADD11C,0.500000*%
%TD*%
%TA.AperFunction,ComponentPad*%
%ADD12RoundRect,0.250001X0.799999X-0.799999X0.799999X0.799999X-0.799999X0.799999X-0.799999X-0.799999X0*%
%TD*%
%TA.AperFunction,ComponentPad*%
%ADD13C,2.100000*%
%TD*%
%TA.AperFunction,ComponentPad*%
%ADD14RoundRect,0.250001X-0.799999X0.799999X-0.799999X-0.799999X0.799999X-0.799999X0.799999X0.799999X0*%
%TD*%
%TA.AperFunction,ViaPad*%
%ADD15C,0.600000*%
%TD*%
G04 APERTURE END LIST*
D10*
%TO.N,out-*%
%TO.C,TP501*%
X196150000Y-86200000D03*
%TO.N,N/C*%
X193610000Y-86200000D03*
%TD*%
D11*
%TO.N,GND*%
%TO.C,U401*%
X186665000Y-79505000D03*
X186665000Y-80555000D03*
X186665000Y-81605000D03*
X186665000Y-82655000D03*
X187740000Y-79505000D03*
X187740000Y-80555000D03*
X187740000Y-81605000D03*
X187740000Y-82655000D03*
X188815000Y-79505000D03*
X188815000Y-80555000D03*
X188815000Y-81605000D03*
X188815000Y-82655000D03*
%TD*%
D12*
%TO.N,out-*%
%TO.C,J505*%
X200800000Y-80600000D03*
D13*
%TO.N,out+*%
X200800000Y-78060000D03*
%TD*%
D14*
%TO.N,+5V_raw*%
%TO.C,J502*%
X134100000Y-59450000D03*
D13*
%TO.N,GND*%
X134100000Y-61990000D03*
%TD*%
D14*
%TO.N,band.10m*%
%TO.C,J504*%
X134150000Y-72650000D03*
D13*
%TO.N,band.2m*%
X134150000Y-75190000D03*
%TD*%
D12*
%TO.N,GND*%
%TO.C,J501*%
X200750000Y-66150000D03*
D13*
%TO.N,+15V_raw*%
X200750000Y-63610000D03*
%TD*%
D14*
%TO.N,band.30m*%
%TO.C,J503*%
X134150000Y-66025000D03*
D13*
%TO.N,band.20m*%
X134150000Y-68565000D03*
%TD*%
D10*
%TO.N,out+*%
%TO.C,TP502*%
X196150000Y-73500000D03*
%TO.N,N/C*%
X193610000Y-73500000D03*
%TD*%
D15*
%TO.N,GND*%
X161750000Y-70455000D03*
X158550000Y-82792500D03*
X154687500Y-65405000D03*
X173600000Y-82792500D03*
X167137500Y-89562500D03*
X167350000Y-74367500D03*
X196752500Y-79980000D03*
X141170121Y-86380000D03*
X194000000Y-70900000D03*
X173250000Y-74367500D03*
X160050000Y-79480000D03*
X157950000Y-56512500D03*
X155250000Y-82792500D03*
X178650000Y-85900000D03*
X160387500Y-88262500D03*
X169700000Y-86170000D03*
X164087500Y-65405000D03*
X165100000Y-68467500D03*
X146400000Y-77500000D03*
X169550000Y-77492500D03*
X144660121Y-82910000D03*
X159987500Y-61755000D03*
X132350000Y-86300000D03*
X162287500Y-88262500D03*
X139700121Y-85100000D03*
X135560121Y-83210000D03*
X187300000Y-69800000D03*
X167100000Y-87770000D03*
X135560121Y-80710000D03*
X161950000Y-79480000D03*
X165600000Y-77492500D03*
X167362500Y-70112500D03*
X173637500Y-65405000D03*
X132400000Y-77550000D03*
X158587500Y-65405000D03*
X167537500Y-63255000D03*
X149550000Y-82312500D03*
X167400000Y-77492500D03*
X149187500Y-90770000D03*
X164900000Y-59812500D03*
X158600000Y-58312500D03*
X186750000Y-77700000D03*
X169050000Y-68467500D03*
X180952500Y-77980000D03*
X165750000Y-86170000D03*
X149200000Y-54550000D03*
X149150000Y-73812500D03*
X166900000Y-68467500D03*
X154900000Y-74367500D03*
X164050000Y-82792500D03*
X159850000Y-70455000D03*
X168850000Y-59812500D03*
X192750000Y-77400000D03*
X198900000Y-72912500D03*
X167700000Y-82792500D03*
X163150000Y-58262500D03*
X166700000Y-59812500D03*
X158200000Y-74367500D03*
X203266845Y-66183918D03*
X167737500Y-65405000D03*
X167400000Y-71905000D03*
X161887500Y-61755000D03*
X187650000Y-77650000D03*
X193952500Y-79980000D03*
X166950000Y-79092500D03*
X163700000Y-74367500D03*
X167550000Y-86170000D03*
X167500000Y-61462500D03*
X166987500Y-80885000D03*
X149450000Y-64612500D03*
%TO.N,Net-(U401-D2_IN-)*%
X188790000Y-76230000D03*
X190640000Y-80080000D03*
%TO.N,band.10m*%
X153485632Y-81071561D03*
X137400000Y-72460000D03*
X177650000Y-81942500D03*
%TO.N,band.20m*%
X153300000Y-72489167D03*
X137350000Y-68550000D03*
X177787500Y-73517500D03*
%TO.N,+3V3*%
X177750000Y-69012500D03*
X153680000Y-87790000D03*
X153700000Y-61862500D03*
X145560121Y-79560000D03*
X177750000Y-78012500D03*
X177750000Y-60212500D03*
X154100000Y-53600000D03*
X153350000Y-70689167D03*
X146110121Y-81860000D03*
X153412500Y-79162500D03*
X177850000Y-86570000D03*
%TO.N,band.30m*%
X177850000Y-64612500D03*
X153523132Y-63812500D03*
X137400000Y-66000000D03*
%TO.N,band.2m*%
X137450000Y-74900000D03*
X153417500Y-89740000D03*
X177787500Y-90670000D03*
%TD*%
%TA.AperFunction,Conductor*%
%TO.N,GND*%
G36*
X202003736Y-51500726D02*
G01*
X202293796Y-51518271D01*
X202308659Y-51520076D01*
X202590797Y-51571780D01*
X202605334Y-51575363D01*
X202879182Y-51660698D01*
X202893163Y-51666000D01*
X203154734Y-51783724D01*
X203167987Y-51790680D01*
X203413458Y-51939071D01*
X203425776Y-51947573D01*
X203651573Y-52124474D01*
X203662781Y-52134404D01*
X203865595Y-52337218D01*
X203875525Y-52348426D01*
X204052422Y-52574217D01*
X204060928Y-52586541D01*
X204209319Y-52832012D01*
X204216277Y-52845269D01*
X204304109Y-53040423D01*
X204333994Y-53106823D01*
X204339304Y-53120825D01*
X204424635Y-53394664D01*
X204428219Y-53409202D01*
X204479923Y-53691340D01*
X204481728Y-53706205D01*
X204499274Y-53996263D01*
X204499500Y-54003750D01*
X204499500Y-90995572D01*
X204499184Y-91004419D01*
X204484869Y-91204557D01*
X204482351Y-91222068D01*
X204440645Y-91413790D01*
X204435661Y-91430765D01*
X204367093Y-91614605D01*
X204359743Y-91630699D01*
X204265709Y-91802908D01*
X204256144Y-91817791D01*
X204138561Y-91974864D01*
X204126975Y-91988235D01*
X203988235Y-92126975D01*
X203974864Y-92138561D01*
X203817791Y-92256144D01*
X203802908Y-92265709D01*
X203630699Y-92359743D01*
X203614605Y-92367093D01*
X203430765Y-92435661D01*
X203413790Y-92440645D01*
X203222068Y-92482351D01*
X203204557Y-92484869D01*
X203023779Y-92497799D01*
X203004417Y-92499184D01*
X202995572Y-92499500D01*
X133003751Y-92499500D01*
X132996264Y-92499274D01*
X132706205Y-92481728D01*
X132691340Y-92479923D01*
X132409202Y-92428219D01*
X132394664Y-92424635D01*
X132120825Y-92339304D01*
X132106827Y-92333995D01*
X131933849Y-92256144D01*
X131845269Y-92216277D01*
X131832012Y-92209319D01*
X131586541Y-92060928D01*
X131574217Y-92052422D01*
X131348426Y-91875525D01*
X131337218Y-91865595D01*
X131134404Y-91662781D01*
X131124474Y-91651573D01*
X131095511Y-91614605D01*
X130947573Y-91425776D01*
X130939071Y-91413458D01*
X130790680Y-91167987D01*
X130783722Y-91154730D01*
X130781829Y-91150524D01*
X130666000Y-90893163D01*
X130660698Y-90879182D01*
X130575360Y-90605323D01*
X130571816Y-90590943D01*
X177187000Y-90590943D01*
X177187000Y-90749057D01*
X177225617Y-90893176D01*
X177227923Y-90901783D01*
X177227926Y-90901790D01*
X177306975Y-91038709D01*
X177306979Y-91038714D01*
X177306980Y-91038716D01*
X177418784Y-91150520D01*
X177418786Y-91150521D01*
X177418790Y-91150524D01*
X177527698Y-91213401D01*
X177555716Y-91229577D01*
X177708443Y-91270500D01*
X177708445Y-91270500D01*
X177866555Y-91270500D01*
X177866557Y-91270500D01*
X178019284Y-91229577D01*
X178156216Y-91150520D01*
X178268020Y-91038716D01*
X178347077Y-90901784D01*
X178388000Y-90749057D01*
X178388000Y-90590943D01*
X178347077Y-90438216D01*
X178296435Y-90350500D01*
X178268024Y-90301290D01*
X178268018Y-90301282D01*
X178156217Y-90189481D01*
X178156209Y-90189475D01*
X178019290Y-90110426D01*
X178019286Y-90110424D01*
X178019284Y-90110423D01*
X177866557Y-90069500D01*
X177708443Y-90069500D01*
X177555716Y-90110423D01*
X177555709Y-90110426D01*
X177418790Y-90189475D01*
X177418782Y-90189481D01*
X177306981Y-90301282D01*
X177306975Y-90301290D01*
X177227926Y-90438209D01*
X177227923Y-90438216D01*
X177187000Y-90590943D01*
X130571816Y-90590943D01*
X130571780Y-90590797D01*
X130520076Y-90308659D01*
X130518271Y-90293794D01*
X130500726Y-90003736D01*
X130500500Y-89996249D01*
X130500500Y-88893713D01*
X132649500Y-88893713D01*
X132649500Y-89106287D01*
X132659534Y-89169644D01*
X132673763Y-89259481D01*
X132682754Y-89316243D01*
X132700637Y-89371282D01*
X132748444Y-89518414D01*
X132844951Y-89707820D01*
X132969890Y-89879786D01*
X133120213Y-90030109D01*
X133292179Y-90155048D01*
X133292181Y-90155049D01*
X133292184Y-90155051D01*
X133481588Y-90251557D01*
X133683757Y-90317246D01*
X133893713Y-90350500D01*
X133893714Y-90350500D01*
X134106286Y-90350500D01*
X134106287Y-90350500D01*
X134316243Y-90317246D01*
X134518412Y-90251557D01*
X134707816Y-90155051D01*
X134729789Y-90139086D01*
X134879786Y-90030109D01*
X134879788Y-90030106D01*
X134879792Y-90030104D01*
X135030104Y-89879792D01*
X135030106Y-89879788D01*
X135030109Y-89879786D01*
X135084899Y-89804371D01*
X135155051Y-89707816D01*
X135178934Y-89660943D01*
X152817000Y-89660943D01*
X152817000Y-89819057D01*
X152833273Y-89879786D01*
X152857923Y-89971783D01*
X152857926Y-89971790D01*
X152936975Y-90108709D01*
X152936979Y-90108714D01*
X152936980Y-90108716D01*
X153048784Y-90220520D01*
X153048786Y-90220521D01*
X153048790Y-90220524D01*
X153102542Y-90251557D01*
X153185716Y-90299577D01*
X153338443Y-90340500D01*
X153338445Y-90340500D01*
X153496555Y-90340500D01*
X153496557Y-90340500D01*
X153649284Y-90299577D01*
X153786216Y-90220520D01*
X153898020Y-90108716D01*
X153977077Y-89971784D01*
X154018000Y-89819057D01*
X154018000Y-89660943D01*
X153977077Y-89508216D01*
X153977073Y-89508209D01*
X153898024Y-89371290D01*
X153898018Y-89371282D01*
X153786217Y-89259481D01*
X153786209Y-89259475D01*
X153649290Y-89180426D01*
X153649286Y-89180424D01*
X153649284Y-89180423D01*
X153496557Y-89139500D01*
X153338443Y-89139500D01*
X153185716Y-89180423D01*
X153185709Y-89180426D01*
X153048790Y-89259475D01*
X153048782Y-89259481D01*
X152936981Y-89371282D01*
X152936975Y-89371290D01*
X152857926Y-89508209D01*
X152857923Y-89508216D01*
X152817000Y-89660943D01*
X135178934Y-89660943D01*
X135251557Y-89518412D01*
X135317246Y-89316243D01*
X135350500Y-89106287D01*
X135350500Y-88893713D01*
X199649500Y-88893713D01*
X199649500Y-89106287D01*
X199659534Y-89169644D01*
X199673763Y-89259481D01*
X199682754Y-89316243D01*
X199700637Y-89371282D01*
X199748444Y-89518414D01*
X199844951Y-89707820D01*
X199969890Y-89879786D01*
X200120213Y-90030109D01*
X200292179Y-90155048D01*
X200292181Y-90155049D01*
X200292184Y-90155051D01*
X200481588Y-90251557D01*
X200683757Y-90317246D01*
X200893713Y-90350500D01*
X200893714Y-90350500D01*
X201106286Y-90350500D01*
X201106287Y-90350500D01*
X201316243Y-90317246D01*
X201518412Y-90251557D01*
X201707816Y-90155051D01*
X201729789Y-90139086D01*
X201879786Y-90030109D01*
X201879788Y-90030106D01*
X201879792Y-90030104D01*
X202030104Y-89879792D01*
X202030106Y-89879788D01*
X202030109Y-89879786D01*
X202155048Y-89707820D01*
X202155049Y-89707819D01*
X202155051Y-89707816D01*
X202251557Y-89518412D01*
X202317246Y-89316243D01*
X202350500Y-89106287D01*
X202350500Y-88893713D01*
X202317246Y-88683757D01*
X202251557Y-88481588D01*
X202155051Y-88292184D01*
X202155049Y-88292181D01*
X202155048Y-88292179D01*
X202030109Y-88120213D01*
X201879786Y-87969890D01*
X201707820Y-87844951D01*
X201518414Y-87748444D01*
X201518413Y-87748443D01*
X201518412Y-87748443D01*
X201316243Y-87682754D01*
X201316241Y-87682753D01*
X201316240Y-87682753D01*
X201154957Y-87657208D01*
X201106287Y-87649500D01*
X200893713Y-87649500D01*
X200845042Y-87657208D01*
X200683760Y-87682753D01*
X200481585Y-87748444D01*
X200292179Y-87844951D01*
X200120213Y-87969890D01*
X199969890Y-88120213D01*
X199844951Y-88292179D01*
X199748444Y-88481585D01*
X199682753Y-88683760D01*
X199649500Y-88893713D01*
X135350500Y-88893713D01*
X135317246Y-88683757D01*
X135251557Y-88481588D01*
X135155051Y-88292184D01*
X135155049Y-88292181D01*
X135155048Y-88292179D01*
X135030109Y-88120213D01*
X134879786Y-87969890D01*
X134707820Y-87844951D01*
X134645703Y-87813301D01*
X134518414Y-87748444D01*
X134518413Y-87748443D01*
X134518412Y-87748443D01*
X134402999Y-87710943D01*
X153079500Y-87710943D01*
X153079500Y-87869056D01*
X153120423Y-88021783D01*
X153120426Y-88021790D01*
X153199475Y-88158709D01*
X153199479Y-88158714D01*
X153199480Y-88158716D01*
X153311284Y-88270520D01*
X153311286Y-88270521D01*
X153311290Y-88270524D01*
X153348807Y-88292184D01*
X153448216Y-88349577D01*
X153600943Y-88390500D01*
X153600945Y-88390500D01*
X153759055Y-88390500D01*
X153759057Y-88390500D01*
X153911784Y-88349577D01*
X154048716Y-88270520D01*
X154160520Y-88158716D01*
X154239577Y-88021784D01*
X154280500Y-87869057D01*
X154280500Y-87710943D01*
X154239577Y-87558216D01*
X154239573Y-87558209D01*
X154160524Y-87421290D01*
X154160518Y-87421282D01*
X154048717Y-87309481D01*
X154048709Y-87309475D01*
X153911790Y-87230426D01*
X153911786Y-87230424D01*
X153911784Y-87230423D01*
X153759057Y-87189500D01*
X153600943Y-87189500D01*
X153448216Y-87230423D01*
X153448209Y-87230426D01*
X153311290Y-87309475D01*
X153311282Y-87309481D01*
X153199481Y-87421282D01*
X153199475Y-87421290D01*
X153120426Y-87558209D01*
X153120423Y-87558216D01*
X153079500Y-87710943D01*
X134402999Y-87710943D01*
X134316243Y-87682754D01*
X134316241Y-87682753D01*
X134316240Y-87682753D01*
X134154957Y-87657208D01*
X134106287Y-87649500D01*
X133893713Y-87649500D01*
X133845042Y-87657208D01*
X133683760Y-87682753D01*
X133481585Y-87748444D01*
X133292179Y-87844951D01*
X133120213Y-87969890D01*
X132969890Y-88120213D01*
X132844951Y-88292179D01*
X132748444Y-88481585D01*
X132682753Y-88683760D01*
X132649500Y-88893713D01*
X130500500Y-88893713D01*
X130500500Y-86490943D01*
X177249500Y-86490943D01*
X177249500Y-86649057D01*
X177256161Y-86673914D01*
X177290423Y-86801783D01*
X177290426Y-86801790D01*
X177369475Y-86938709D01*
X177369479Y-86938714D01*
X177369480Y-86938716D01*
X177481284Y-87050520D01*
X177481286Y-87050521D01*
X177481290Y-87050524D01*
X177618209Y-87129573D01*
X177618216Y-87129577D01*
X177770943Y-87170500D01*
X177770945Y-87170500D01*
X177929055Y-87170500D01*
X177929057Y-87170500D01*
X178081784Y-87129577D01*
X178218716Y-87050520D01*
X178330520Y-86938716D01*
X178409577Y-86801784D01*
X178450500Y-86649057D01*
X178450500Y-86490943D01*
X178409577Y-86338216D01*
X178386672Y-86298543D01*
X192609499Y-86298543D01*
X192647947Y-86491829D01*
X192647950Y-86491839D01*
X192723364Y-86673907D01*
X192723371Y-86673920D01*
X192832860Y-86837781D01*
X192832863Y-86837785D01*
X192972214Y-86977136D01*
X192972218Y-86977139D01*
X193136079Y-87086628D01*
X193136092Y-87086635D01*
X193239765Y-87129577D01*
X193318165Y-87162051D01*
X193318169Y-87162051D01*
X193318170Y-87162052D01*
X193511456Y-87200500D01*
X193511459Y-87200500D01*
X193708543Y-87200500D01*
X193859359Y-87170500D01*
X193901835Y-87162051D01*
X194083914Y-87086632D01*
X194247782Y-86977139D01*
X194387139Y-86837782D01*
X194496632Y-86673914D01*
X194572051Y-86491835D01*
X194602608Y-86338216D01*
X194610500Y-86298543D01*
X195149499Y-86298543D01*
X195187947Y-86491829D01*
X195187950Y-86491839D01*
X195263364Y-86673907D01*
X195263371Y-86673920D01*
X195372860Y-86837781D01*
X195372863Y-86837785D01*
X195512214Y-86977136D01*
X195512218Y-86977139D01*
X195676079Y-87086628D01*
X195676092Y-87086635D01*
X195779765Y-87129577D01*
X195858165Y-87162051D01*
X195858169Y-87162051D01*
X195858170Y-87162052D01*
X196051456Y-87200500D01*
X196051459Y-87200500D01*
X196248543Y-87200500D01*
X196399359Y-87170500D01*
X196441835Y-87162051D01*
X196623914Y-87086632D01*
X196787782Y-86977139D01*
X196927139Y-86837782D01*
X197036632Y-86673914D01*
X197112051Y-86491835D01*
X197142608Y-86338216D01*
X197150500Y-86298543D01*
X197150500Y-86101456D01*
X197112052Y-85908170D01*
X197112051Y-85908169D01*
X197112051Y-85908165D01*
X197112049Y-85908160D01*
X197036635Y-85726092D01*
X197036628Y-85726079D01*
X196927139Y-85562218D01*
X196927136Y-85562214D01*
X196787785Y-85422863D01*
X196787781Y-85422860D01*
X196623920Y-85313371D01*
X196623907Y-85313364D01*
X196441839Y-85237950D01*
X196441829Y-85237947D01*
X196248543Y-85199500D01*
X196248541Y-85199500D01*
X196051459Y-85199500D01*
X196051457Y-85199500D01*
X195858170Y-85237947D01*
X195858160Y-85237950D01*
X195676092Y-85313364D01*
X195676079Y-85313371D01*
X195512218Y-85422860D01*
X195512214Y-85422863D01*
X195372863Y-85562214D01*
X195372860Y-85562218D01*
X195263371Y-85726079D01*
X195263364Y-85726092D01*
X195187950Y-85908160D01*
X195187947Y-85908170D01*
X195149500Y-86101456D01*
X195149500Y-86101459D01*
X195149500Y-86298541D01*
X195149500Y-86298543D01*
X195149499Y-86298543D01*
X194610500Y-86298543D01*
X194610500Y-86101456D01*
X194572052Y-85908170D01*
X194572051Y-85908169D01*
X194572051Y-85908165D01*
X194572049Y-85908160D01*
X194496635Y-85726092D01*
X194496628Y-85726079D01*
X194387139Y-85562218D01*
X194387136Y-85562214D01*
X194247785Y-85422863D01*
X194247781Y-85422860D01*
X194083920Y-85313371D01*
X194083907Y-85313364D01*
X193901839Y-85237950D01*
X193901829Y-85237947D01*
X193708543Y-85199500D01*
X193708541Y-85199500D01*
X193511459Y-85199500D01*
X193511457Y-85199500D01*
X193318170Y-85237947D01*
X193318160Y-85237950D01*
X193136092Y-85313364D01*
X193136079Y-85313371D01*
X192972218Y-85422860D01*
X192972214Y-85422863D01*
X192832863Y-85562214D01*
X192832860Y-85562218D01*
X192723371Y-85726079D01*
X192723364Y-85726092D01*
X192647950Y-85908160D01*
X192647947Y-85908170D01*
X192609500Y-86101456D01*
X192609500Y-86101459D01*
X192609500Y-86298541D01*
X192609500Y-86298543D01*
X192609499Y-86298543D01*
X178386672Y-86298543D01*
X178386671Y-86298541D01*
X178330524Y-86201290D01*
X178330518Y-86201282D01*
X178218717Y-86089481D01*
X178218709Y-86089475D01*
X178081790Y-86010426D01*
X178081786Y-86010424D01*
X178081784Y-86010423D01*
X177929057Y-85969500D01*
X177770943Y-85969500D01*
X177618216Y-86010423D01*
X177618209Y-86010426D01*
X177481290Y-86089475D01*
X177481282Y-86089481D01*
X177369481Y-86201282D01*
X177369475Y-86201290D01*
X177290426Y-86338209D01*
X177290423Y-86338216D01*
X177249500Y-86490943D01*
X130500500Y-86490943D01*
X130500500Y-84124000D01*
X130520185Y-84056961D01*
X130572989Y-84011206D01*
X130624500Y-84000000D01*
X134710121Y-84000000D01*
X134710121Y-81780943D01*
X145509621Y-81780943D01*
X145509621Y-81939057D01*
X145549520Y-82087960D01*
X145550544Y-82091783D01*
X145550547Y-82091790D01*
X145629596Y-82228709D01*
X145629600Y-82228714D01*
X145629601Y-82228716D01*
X145741405Y-82340520D01*
X145741407Y-82340521D01*
X145741411Y-82340524D01*
X145878330Y-82419573D01*
X145878337Y-82419577D01*
X146031064Y-82460500D01*
X146031066Y-82460500D01*
X146189176Y-82460500D01*
X146189178Y-82460500D01*
X146341905Y-82419577D01*
X146478837Y-82340520D01*
X146590641Y-82228716D01*
X146669698Y-82091784D01*
X146710621Y-81939057D01*
X146710621Y-81863443D01*
X177049500Y-81863443D01*
X177049500Y-82021557D01*
X177087157Y-82162093D01*
X177090423Y-82174283D01*
X177090426Y-82174290D01*
X177169475Y-82311209D01*
X177169479Y-82311214D01*
X177169480Y-82311216D01*
X177281284Y-82423020D01*
X177281286Y-82423021D01*
X177281290Y-82423024D01*
X177418209Y-82502073D01*
X177418216Y-82502077D01*
X177570943Y-82543000D01*
X177570945Y-82543000D01*
X177729055Y-82543000D01*
X177729057Y-82543000D01*
X177881784Y-82502077D01*
X178018716Y-82423020D01*
X178130520Y-82311216D01*
X178209577Y-82174284D01*
X178250500Y-82021557D01*
X178250500Y-81863443D01*
X178209577Y-81710716D01*
X178148543Y-81605001D01*
X178141641Y-81593046D01*
X178141640Y-81593044D01*
X178130522Y-81573787D01*
X178130518Y-81573782D01*
X178018717Y-81461981D01*
X178018709Y-81461975D01*
X177881790Y-81382926D01*
X177881786Y-81382924D01*
X177881784Y-81382923D01*
X177729057Y-81342000D01*
X177570943Y-81342000D01*
X177418216Y-81382923D01*
X177418209Y-81382926D01*
X177281290Y-81461975D01*
X177281282Y-81461981D01*
X177169481Y-81573782D01*
X177169475Y-81573790D01*
X177090426Y-81710709D01*
X177090423Y-81710716D01*
X177049500Y-81863443D01*
X146710621Y-81863443D01*
X146710621Y-81780943D01*
X146669698Y-81628216D01*
X146649392Y-81593044D01*
X146590645Y-81491290D01*
X146590639Y-81491282D01*
X146478838Y-81379481D01*
X146478830Y-81379475D01*
X146341911Y-81300426D01*
X146341907Y-81300424D01*
X146341905Y-81300423D01*
X146189178Y-81259500D01*
X146031064Y-81259500D01*
X145878337Y-81300423D01*
X145878330Y-81300426D01*
X145741411Y-81379475D01*
X145741403Y-81379481D01*
X145629602Y-81491282D01*
X145629596Y-81491290D01*
X145550547Y-81628209D01*
X145550544Y-81628216D01*
X145509621Y-81780943D01*
X134710121Y-81780943D01*
X134710121Y-80992504D01*
X152885132Y-80992504D01*
X152885132Y-81150617D01*
X152926055Y-81303344D01*
X152926058Y-81303351D01*
X153005107Y-81440270D01*
X153005111Y-81440275D01*
X153005112Y-81440277D01*
X153116916Y-81552081D01*
X153116918Y-81552082D01*
X153116922Y-81552085D01*
X153187870Y-81593046D01*
X153253848Y-81631138D01*
X153406575Y-81672061D01*
X153406577Y-81672061D01*
X153564687Y-81672061D01*
X153564689Y-81672061D01*
X153717416Y-81631138D01*
X153854348Y-81552081D01*
X153966152Y-81440277D01*
X154045209Y-81303345D01*
X154086132Y-81150618D01*
X154086132Y-80992504D01*
X154045209Y-80839777D01*
X154045205Y-80839770D01*
X153966156Y-80702851D01*
X153966150Y-80702843D01*
X153854349Y-80591042D01*
X153854341Y-80591036D01*
X153717422Y-80511987D01*
X153717418Y-80511985D01*
X153717416Y-80511984D01*
X153564689Y-80471061D01*
X153406575Y-80471061D01*
X153253848Y-80511984D01*
X153253841Y-80511987D01*
X153116922Y-80591036D01*
X153116914Y-80591042D01*
X153005113Y-80702843D01*
X153005107Y-80702851D01*
X152926058Y-80839770D01*
X152926055Y-80839777D01*
X152885132Y-80992504D01*
X134710121Y-80992504D01*
X134710121Y-80240000D01*
X130624500Y-80240000D01*
X130557461Y-80220315D01*
X130511706Y-80167511D01*
X130500500Y-80116000D01*
X130500500Y-79480943D01*
X144959621Y-79480943D01*
X144959621Y-79639057D01*
X144992832Y-79763000D01*
X145000544Y-79791783D01*
X145000547Y-79791790D01*
X145079596Y-79928709D01*
X145079600Y-79928714D01*
X145079601Y-79928716D01*
X145191405Y-80040520D01*
X145191407Y-80040521D01*
X145191411Y-80040524D01*
X145322141Y-80116000D01*
X145328337Y-80119577D01*
X145481064Y-80160500D01*
X145481066Y-80160500D01*
X145639176Y-80160500D01*
X145639178Y-80160500D01*
X145791905Y-80119577D01*
X145928837Y-80040520D01*
X146040641Y-79928716D01*
X146119698Y-79791784D01*
X146160621Y-79639057D01*
X146160621Y-79480943D01*
X146119698Y-79328216D01*
X146112437Y-79315639D01*
X146040645Y-79191290D01*
X146040639Y-79191282D01*
X145932800Y-79083443D01*
X152812000Y-79083443D01*
X152812000Y-79241557D01*
X152849526Y-79381604D01*
X152852923Y-79394283D01*
X152852926Y-79394290D01*
X152931975Y-79531209D01*
X152931979Y-79531214D01*
X152931980Y-79531216D01*
X153043784Y-79643020D01*
X153043786Y-79643021D01*
X153043790Y-79643024D01*
X153156566Y-79708134D01*
X153180716Y-79722077D01*
X153333443Y-79763000D01*
X153333445Y-79763000D01*
X153491555Y-79763000D01*
X153491557Y-79763000D01*
X153644284Y-79722077D01*
X153781216Y-79643020D01*
X153893020Y-79531216D01*
X153972077Y-79394284D01*
X154013000Y-79241557D01*
X154013000Y-79179999D01*
X182940000Y-79179999D01*
X182940000Y-79180000D01*
X182940000Y-80180000D01*
X183112970Y-80380000D01*
X183112971Y-80380000D01*
X184539413Y-80380000D01*
X184595681Y-84680000D01*
X190340000Y-84680000D01*
X190232399Y-80521635D01*
X190271284Y-80560520D01*
X190271286Y-80560521D01*
X190271290Y-80560524D01*
X190324148Y-80591041D01*
X190408216Y-80639577D01*
X190560943Y-80680500D01*
X190560945Y-80680500D01*
X190719055Y-80680500D01*
X190719057Y-80680500D01*
X190871784Y-80639577D01*
X191008716Y-80560520D01*
X191120520Y-80448716D01*
X191199577Y-80311784D01*
X191240500Y-80159057D01*
X191240500Y-80000943D01*
X191199577Y-79848216D01*
X191167000Y-79791790D01*
X191120524Y-79711290D01*
X191120518Y-79711282D01*
X191008717Y-79599481D01*
X191008709Y-79599475D01*
X190871790Y-79520426D01*
X190871786Y-79520424D01*
X190871784Y-79520423D01*
X190719057Y-79479500D01*
X190560943Y-79479500D01*
X190408216Y-79520423D01*
X190408209Y-79520426D01*
X190271290Y-79599475D01*
X190271282Y-79599481D01*
X190210120Y-79660642D01*
X190165953Y-77953713D01*
X199449500Y-77953713D01*
X199449500Y-78166287D01*
X199482754Y-78376243D01*
X199546384Y-78572076D01*
X199548444Y-78578414D01*
X199644951Y-78767820D01*
X199769890Y-78939786D01*
X199893820Y-79063716D01*
X199927305Y-79125039D01*
X199922321Y-79194731D01*
X199880449Y-79250664D01*
X199851630Y-79266751D01*
X199805636Y-79284889D01*
X199727655Y-79315640D01*
X199607077Y-79407077D01*
X199515640Y-79527655D01*
X199502236Y-79561645D01*
X199470148Y-79643018D01*
X199460124Y-79668437D01*
X199460123Y-79668438D01*
X199449500Y-79756900D01*
X199449500Y-81443091D01*
X199460123Y-81531562D01*
X199515639Y-81672342D01*
X199515640Y-81672344D01*
X199607077Y-81792922D01*
X199700076Y-81863445D01*
X199727658Y-81884361D01*
X199868436Y-81939876D01*
X199956901Y-81950500D01*
X201643098Y-81950499D01*
X201731564Y-81939876D01*
X201872342Y-81884361D01*
X201992922Y-81792922D01*
X202084361Y-81672342D01*
X202139876Y-81531564D01*
X202150500Y-81443099D01*
X202150499Y-79756902D01*
X202139876Y-79668436D01*
X202084361Y-79527658D01*
X202052095Y-79485109D01*
X201992922Y-79407077D01*
X201872344Y-79315640D01*
X201872342Y-79315639D01*
X201794364Y-79284889D01*
X201748370Y-79266751D01*
X201693226Y-79223846D01*
X201670033Y-79157938D01*
X201686153Y-79089954D01*
X201706172Y-79063723D01*
X201830104Y-78939792D01*
X201955051Y-78767816D01*
X202051557Y-78578412D01*
X202117246Y-78376243D01*
X202150500Y-78166287D01*
X202150500Y-77953713D01*
X202117246Y-77743757D01*
X202051557Y-77541588D01*
X201955051Y-77352184D01*
X201955049Y-77352181D01*
X201955048Y-77352179D01*
X201830109Y-77180213D01*
X201679786Y-77029890D01*
X201507820Y-76904951D01*
X201318414Y-76808444D01*
X201318413Y-76808443D01*
X201318412Y-76808443D01*
X201116243Y-76742754D01*
X201116241Y-76742753D01*
X201116240Y-76742753D01*
X200954957Y-76717208D01*
X200906287Y-76709500D01*
X200693713Y-76709500D01*
X200645042Y-76717208D01*
X200483760Y-76742753D01*
X200281585Y-76808444D01*
X200092179Y-76904951D01*
X199920213Y-77029890D01*
X199769890Y-77180213D01*
X199644951Y-77352179D01*
X199548444Y-77541585D01*
X199482753Y-77743760D01*
X199476901Y-77780709D01*
X199449500Y-77953713D01*
X190165953Y-77953713D01*
X190148520Y-77280000D01*
X186648911Y-77280000D01*
X187188057Y-76752001D01*
X187193319Y-76150943D01*
X188189500Y-76150943D01*
X188189500Y-76309056D01*
X188230423Y-76461783D01*
X188230426Y-76461790D01*
X188309475Y-76598709D01*
X188309479Y-76598714D01*
X188309480Y-76598716D01*
X188421284Y-76710520D01*
X188421286Y-76710521D01*
X188421290Y-76710524D01*
X188558209Y-76789573D01*
X188558216Y-76789577D01*
X188710943Y-76830500D01*
X188710945Y-76830500D01*
X188869055Y-76830500D01*
X188869057Y-76830500D01*
X189021784Y-76789577D01*
X189158716Y-76710520D01*
X189270520Y-76598716D01*
X189349577Y-76461784D01*
X189390500Y-76309057D01*
X189390500Y-76150943D01*
X189349577Y-75998216D01*
X189291612Y-75897816D01*
X189270524Y-75861290D01*
X189270518Y-75861282D01*
X189158717Y-75749481D01*
X189158709Y-75749475D01*
X189021790Y-75670426D01*
X189021786Y-75670424D01*
X189021784Y-75670423D01*
X188869057Y-75629500D01*
X188710943Y-75629500D01*
X188558216Y-75670423D01*
X188558209Y-75670426D01*
X188421290Y-75749475D01*
X188421282Y-75749481D01*
X188309481Y-75861282D01*
X188309475Y-75861290D01*
X188230426Y-75998209D01*
X188230423Y-75998216D01*
X188189500Y-76150943D01*
X187193319Y-76150943D01*
X187194029Y-76069792D01*
X187197050Y-75724551D01*
X187197049Y-75724548D01*
X186902500Y-75430000D01*
X186902499Y-75430000D01*
X186252500Y-75679999D01*
X186252499Y-75680001D01*
X185185833Y-77280000D01*
X184498848Y-77280000D01*
X184511524Y-78248779D01*
X183352503Y-78779997D01*
X183352502Y-78779998D01*
X182940000Y-79179999D01*
X154013000Y-79179999D01*
X154013000Y-79083443D01*
X153972077Y-78930716D01*
X153972073Y-78930709D01*
X153893024Y-78793790D01*
X153893018Y-78793782D01*
X153781217Y-78681981D01*
X153781209Y-78681975D01*
X153644290Y-78602926D01*
X153644286Y-78602924D01*
X153644284Y-78602923D01*
X153491557Y-78562000D01*
X153333443Y-78562000D01*
X153180716Y-78602923D01*
X153180709Y-78602926D01*
X153043790Y-78681975D01*
X153043782Y-78681981D01*
X152931981Y-78793782D01*
X152931975Y-78793790D01*
X152852926Y-78930709D01*
X152852923Y-78930716D01*
X152812000Y-79083443D01*
X145932800Y-79083443D01*
X145928838Y-79079481D01*
X145928830Y-79079475D01*
X145791911Y-79000426D01*
X145791907Y-79000424D01*
X145791905Y-79000423D01*
X145639178Y-78959500D01*
X145481064Y-78959500D01*
X145328337Y-79000423D01*
X145328330Y-79000426D01*
X145191411Y-79079475D01*
X145191403Y-79079481D01*
X145079602Y-79191282D01*
X145079596Y-79191290D01*
X145000547Y-79328209D01*
X145000544Y-79328216D01*
X144959621Y-79480943D01*
X130500500Y-79480943D01*
X130500500Y-77933443D01*
X177149500Y-77933443D01*
X177149500Y-78091556D01*
X177190423Y-78244283D01*
X177190426Y-78244290D01*
X177269475Y-78381209D01*
X177269479Y-78381214D01*
X177269480Y-78381216D01*
X177381284Y-78493020D01*
X177381286Y-78493021D01*
X177381290Y-78493024D01*
X177500762Y-78562000D01*
X177518216Y-78572077D01*
X177670943Y-78613000D01*
X177670945Y-78613000D01*
X177829055Y-78613000D01*
X177829057Y-78613000D01*
X177981784Y-78572077D01*
X178118716Y-78493020D01*
X178230520Y-78381216D01*
X178309577Y-78244284D01*
X178350500Y-78091557D01*
X178350500Y-77933443D01*
X178309577Y-77780716D01*
X178244613Y-77668194D01*
X178230524Y-77643790D01*
X178230518Y-77643782D01*
X178118717Y-77531981D01*
X178118709Y-77531975D01*
X177981790Y-77452926D01*
X177981786Y-77452924D01*
X177981784Y-77452923D01*
X177829057Y-77412000D01*
X177670943Y-77412000D01*
X177518216Y-77452923D01*
X177518209Y-77452926D01*
X177381290Y-77531975D01*
X177381282Y-77531981D01*
X177269481Y-77643782D01*
X177269475Y-77643790D01*
X177190426Y-77780709D01*
X177190423Y-77780716D01*
X177149500Y-77933443D01*
X130500500Y-77933443D01*
X130500500Y-71806900D01*
X132799500Y-71806900D01*
X132799500Y-73493091D01*
X132810123Y-73581562D01*
X132865639Y-73722342D01*
X132865640Y-73722344D01*
X132957077Y-73842922D01*
X133077655Y-73934359D01*
X133077658Y-73934361D01*
X133201630Y-73983248D01*
X133256772Y-74026152D01*
X133279966Y-74092060D01*
X133263846Y-74160045D01*
X133243821Y-74186283D01*
X133119889Y-74310215D01*
X132994951Y-74482179D01*
X132898444Y-74671585D01*
X132832753Y-74873760D01*
X132799500Y-75083713D01*
X132799500Y-75296286D01*
X132825362Y-75459576D01*
X132832754Y-75506243D01*
X132889211Y-75680000D01*
X132898444Y-75708414D01*
X132994951Y-75897820D01*
X133119890Y-76069786D01*
X133270213Y-76220109D01*
X133442179Y-76345048D01*
X133442181Y-76345049D01*
X133442184Y-76345051D01*
X133631588Y-76441557D01*
X133833757Y-76507246D01*
X134043713Y-76540500D01*
X134043714Y-76540500D01*
X134256286Y-76540500D01*
X134256287Y-76540500D01*
X134466243Y-76507246D01*
X134668412Y-76441557D01*
X134857816Y-76345051D01*
X134907361Y-76309055D01*
X135029786Y-76220109D01*
X135029788Y-76220106D01*
X135029792Y-76220104D01*
X135180104Y-76069792D01*
X135180106Y-76069788D01*
X135180109Y-76069786D01*
X135305048Y-75897820D01*
X135305047Y-75897820D01*
X135305051Y-75897816D01*
X135401557Y-75708412D01*
X135467246Y-75506243D01*
X135500500Y-75296287D01*
X135500500Y-75083713D01*
X135467246Y-74873757D01*
X135450086Y-74820943D01*
X136849500Y-74820943D01*
X136849500Y-74979057D01*
X136877543Y-75083713D01*
X136890423Y-75131783D01*
X136890426Y-75131790D01*
X136969475Y-75268709D01*
X136969479Y-75268714D01*
X136969480Y-75268716D01*
X137081284Y-75380520D01*
X137081286Y-75380521D01*
X137081290Y-75380524D01*
X137218209Y-75459573D01*
X137218216Y-75459577D01*
X137370943Y-75500500D01*
X137370945Y-75500500D01*
X137529055Y-75500500D01*
X137529057Y-75500500D01*
X137681784Y-75459577D01*
X137818716Y-75380520D01*
X137930520Y-75268716D01*
X138009577Y-75131784D01*
X138050500Y-74979057D01*
X138050500Y-74820943D01*
X138009577Y-74668216D01*
X138009573Y-74668209D01*
X137930524Y-74531290D01*
X137930518Y-74531282D01*
X137818717Y-74419481D01*
X137818709Y-74419475D01*
X137681790Y-74340426D01*
X137681786Y-74340424D01*
X137681784Y-74340423D01*
X137529057Y-74299500D01*
X137370943Y-74299500D01*
X137218216Y-74340423D01*
X137218209Y-74340426D01*
X137081290Y-74419475D01*
X137081282Y-74419481D01*
X136969481Y-74531282D01*
X136969475Y-74531290D01*
X136890426Y-74668209D01*
X136890423Y-74668216D01*
X136849500Y-74820943D01*
X135450086Y-74820943D01*
X135401557Y-74671588D01*
X135305051Y-74482184D01*
X135305049Y-74482181D01*
X135305048Y-74482179D01*
X135180109Y-74310213D01*
X135056179Y-74186283D01*
X135022694Y-74124960D01*
X135027678Y-74055268D01*
X135069550Y-73999335D01*
X135098363Y-73983251D01*
X135222342Y-73934361D01*
X135342922Y-73842922D01*
X135434361Y-73722342D01*
X135489876Y-73581564D01*
X135500500Y-73493099D01*
X135500500Y-73438443D01*
X177187000Y-73438443D01*
X177187000Y-73596557D01*
X177220705Y-73722344D01*
X177227923Y-73749283D01*
X177227926Y-73749290D01*
X177306975Y-73886209D01*
X177306979Y-73886214D01*
X177306980Y-73886216D01*
X177418784Y-73998020D01*
X177418786Y-73998021D01*
X177418790Y-73998024D01*
X177482747Y-74034949D01*
X177555716Y-74077077D01*
X177708443Y-74118000D01*
X177708445Y-74118000D01*
X177866555Y-74118000D01*
X177866557Y-74118000D01*
X178019284Y-74077077D01*
X178156216Y-73998020D01*
X178268020Y-73886216D01*
X178347077Y-73749284D01*
X178387468Y-73598543D01*
X192609499Y-73598543D01*
X192647947Y-73791829D01*
X192647950Y-73791839D01*
X192723364Y-73973907D01*
X192723371Y-73973920D01*
X192832860Y-74137781D01*
X192832863Y-74137785D01*
X192972214Y-74277136D01*
X192972218Y-74277139D01*
X193136079Y-74386628D01*
X193136092Y-74386635D01*
X193318160Y-74462049D01*
X193318165Y-74462051D01*
X193318169Y-74462051D01*
X193318170Y-74462052D01*
X193511456Y-74500500D01*
X193511459Y-74500500D01*
X193708543Y-74500500D01*
X193838582Y-74474632D01*
X193901835Y-74462051D01*
X194083914Y-74386632D01*
X194247782Y-74277139D01*
X194387139Y-74137782D01*
X194496632Y-73973914D01*
X194572051Y-73791835D01*
X194610500Y-73598543D01*
X195149499Y-73598543D01*
X195187947Y-73791829D01*
X195187950Y-73791839D01*
X195263364Y-73973907D01*
X195263371Y-73973920D01*
X195372860Y-74137781D01*
X195372863Y-74137785D01*
X195512214Y-74277136D01*
X195512218Y-74277139D01*
X195676079Y-74386628D01*
X195676092Y-74386635D01*
X195858160Y-74462049D01*
X195858165Y-74462051D01*
X195858169Y-74462051D01*
X195858170Y-74462052D01*
X196051456Y-74500500D01*
X196051459Y-74500500D01*
X196248543Y-74500500D01*
X196378582Y-74474632D01*
X196441835Y-74462051D01*
X196623914Y-74386632D01*
X196787782Y-74277139D01*
X196927139Y-74137782D01*
X197036632Y-73973914D01*
X197112051Y-73791835D01*
X197150500Y-73598541D01*
X197150500Y-73401459D01*
X197150500Y-73401456D01*
X197112052Y-73208170D01*
X197112051Y-73208169D01*
X197112051Y-73208165D01*
X197062968Y-73089667D01*
X197036635Y-73026092D01*
X197036628Y-73026079D01*
X196927139Y-72862218D01*
X196927136Y-72862214D01*
X196787785Y-72722863D01*
X196787781Y-72722860D01*
X196623920Y-72613371D01*
X196623907Y-72613364D01*
X196441839Y-72537950D01*
X196441829Y-72537947D01*
X196248543Y-72499500D01*
X196248541Y-72499500D01*
X196051459Y-72499500D01*
X196051457Y-72499500D01*
X195858170Y-72537947D01*
X195858160Y-72537950D01*
X195676092Y-72613364D01*
X195676079Y-72613371D01*
X195512218Y-72722860D01*
X195512214Y-72722863D01*
X195372863Y-72862214D01*
X195372860Y-72862218D01*
X195263371Y-73026079D01*
X195263364Y-73026092D01*
X195187950Y-73208160D01*
X195187947Y-73208170D01*
X195149500Y-73401456D01*
X195149500Y-73401459D01*
X195149500Y-73598541D01*
X195149500Y-73598543D01*
X195149499Y-73598543D01*
X194610500Y-73598543D01*
X194610500Y-73598541D01*
X194610500Y-73401459D01*
X194610500Y-73401456D01*
X194572052Y-73208170D01*
X194572051Y-73208169D01*
X194572051Y-73208165D01*
X194522968Y-73089667D01*
X194496635Y-73026092D01*
X194496628Y-73026079D01*
X194387139Y-72862218D01*
X194387136Y-72862214D01*
X194247785Y-72722863D01*
X194247781Y-72722860D01*
X194083920Y-72613371D01*
X194083907Y-72613364D01*
X193901839Y-72537950D01*
X193901829Y-72537947D01*
X193708543Y-72499500D01*
X193708541Y-72499500D01*
X193511459Y-72499500D01*
X193511457Y-72499500D01*
X193318170Y-72537947D01*
X193318160Y-72537950D01*
X193136092Y-72613364D01*
X193136079Y-72613371D01*
X192972218Y-72722860D01*
X192972214Y-72722863D01*
X192832863Y-72862214D01*
X192832860Y-72862218D01*
X192723371Y-73026079D01*
X192723364Y-73026092D01*
X192647950Y-73208160D01*
X192647947Y-73208170D01*
X192609500Y-73401456D01*
X192609500Y-73401459D01*
X192609500Y-73598541D01*
X192609500Y-73598543D01*
X192609499Y-73598543D01*
X178387468Y-73598543D01*
X178388000Y-73596557D01*
X178388000Y-73438443D01*
X178347077Y-73285716D01*
X178347073Y-73285709D01*
X178268024Y-73148790D01*
X178268018Y-73148782D01*
X178156217Y-73036981D01*
X178156209Y-73036975D01*
X178019290Y-72957926D01*
X178019286Y-72957924D01*
X178019284Y-72957923D01*
X177866557Y-72917000D01*
X177708443Y-72917000D01*
X177555716Y-72957923D01*
X177555709Y-72957926D01*
X177418790Y-73036975D01*
X177418782Y-73036981D01*
X177306981Y-73148782D01*
X177306975Y-73148790D01*
X177227926Y-73285709D01*
X177227924Y-73285714D01*
X177227923Y-73285716D01*
X177187000Y-73438443D01*
X135500500Y-73438443D01*
X135500499Y-72380943D01*
X136799500Y-72380943D01*
X136799500Y-72539057D01*
X136819413Y-72613371D01*
X136840423Y-72691783D01*
X136840426Y-72691790D01*
X136919475Y-72828709D01*
X136919479Y-72828714D01*
X136919480Y-72828716D01*
X137031284Y-72940520D01*
X137031286Y-72940521D01*
X137031290Y-72940524D01*
X137081803Y-72969687D01*
X137168216Y-73019577D01*
X137320943Y-73060500D01*
X137320945Y-73060500D01*
X137479055Y-73060500D01*
X137479057Y-73060500D01*
X137631784Y-73019577D01*
X137768716Y-72940520D01*
X137880520Y-72828716D01*
X137959577Y-72691784D01*
X138000500Y-72539057D01*
X138000500Y-72410110D01*
X152699500Y-72410110D01*
X152699500Y-72568224D01*
X152732610Y-72691790D01*
X152740423Y-72720950D01*
X152740426Y-72720957D01*
X152819475Y-72857876D01*
X152819479Y-72857881D01*
X152819480Y-72857883D01*
X152931284Y-72969687D01*
X152931286Y-72969688D01*
X152931290Y-72969691D01*
X153068209Y-73048740D01*
X153068216Y-73048744D01*
X153220943Y-73089667D01*
X153220945Y-73089667D01*
X153379055Y-73089667D01*
X153379057Y-73089667D01*
X153531784Y-73048744D01*
X153668716Y-72969687D01*
X153780520Y-72857883D01*
X153859577Y-72720951D01*
X153900500Y-72568224D01*
X153900500Y-72410110D01*
X153859577Y-72257383D01*
X153842734Y-72228209D01*
X153780524Y-72120457D01*
X153780518Y-72120449D01*
X153668717Y-72008648D01*
X153668709Y-72008642D01*
X153531790Y-71929593D01*
X153531786Y-71929591D01*
X153531784Y-71929590D01*
X153379057Y-71888667D01*
X153220943Y-71888667D01*
X153068216Y-71929590D01*
X153068209Y-71929593D01*
X152931290Y-72008642D01*
X152931282Y-72008648D01*
X152819481Y-72120449D01*
X152819475Y-72120457D01*
X152740426Y-72257376D01*
X152740423Y-72257383D01*
X152699500Y-72410110D01*
X138000500Y-72410110D01*
X138000500Y-72380943D01*
X137959577Y-72228216D01*
X137897363Y-72120457D01*
X137880524Y-72091290D01*
X137880518Y-72091282D01*
X137768717Y-71979481D01*
X137768709Y-71979475D01*
X137631790Y-71900426D01*
X137631786Y-71900424D01*
X137631784Y-71900423D01*
X137479057Y-71859500D01*
X137320943Y-71859500D01*
X137168216Y-71900423D01*
X137168209Y-71900426D01*
X137031290Y-71979475D01*
X137031282Y-71979481D01*
X136919481Y-72091282D01*
X136919475Y-72091290D01*
X136840426Y-72228209D01*
X136840423Y-72228216D01*
X136799500Y-72380943D01*
X135500499Y-72380943D01*
X135500499Y-71806902D01*
X135489876Y-71718436D01*
X135434361Y-71577658D01*
X135434359Y-71577655D01*
X135342922Y-71457077D01*
X135222344Y-71365640D01*
X135222342Y-71365639D01*
X135081564Y-71310124D01*
X135081561Y-71310123D01*
X134993099Y-71299500D01*
X133306908Y-71299500D01*
X133218437Y-71310123D01*
X133077657Y-71365639D01*
X133077655Y-71365640D01*
X132957077Y-71457077D01*
X132865640Y-71577655D01*
X132810124Y-71718437D01*
X132810123Y-71718438D01*
X132799500Y-71806900D01*
X130500500Y-71806900D01*
X130500500Y-70610110D01*
X152749500Y-70610110D01*
X152749500Y-70768223D01*
X152790423Y-70920950D01*
X152790426Y-70920957D01*
X152869475Y-71057876D01*
X152869479Y-71057881D01*
X152869480Y-71057883D01*
X152981284Y-71169687D01*
X152981286Y-71169688D01*
X152981290Y-71169691D01*
X153118209Y-71248740D01*
X153118216Y-71248744D01*
X153270943Y-71289667D01*
X153270945Y-71289667D01*
X153429055Y-71289667D01*
X153429057Y-71289667D01*
X153581784Y-71248744D01*
X153718716Y-71169687D01*
X153830520Y-71057883D01*
X153909577Y-70920951D01*
X153950500Y-70768224D01*
X153950500Y-70610110D01*
X153909577Y-70457383D01*
X153909573Y-70457376D01*
X153830524Y-70320457D01*
X153830518Y-70320449D01*
X153718717Y-70208648D01*
X153718709Y-70208642D01*
X153581790Y-70129593D01*
X153581786Y-70129591D01*
X153581784Y-70129590D01*
X153429057Y-70088667D01*
X153270943Y-70088667D01*
X153118216Y-70129590D01*
X153118209Y-70129593D01*
X152981290Y-70208642D01*
X152981282Y-70208648D01*
X152869481Y-70320449D01*
X152869475Y-70320457D01*
X152790426Y-70457376D01*
X152790423Y-70457383D01*
X152749500Y-70610110D01*
X130500500Y-70610110D01*
X130500500Y-65181900D01*
X132799500Y-65181900D01*
X132799500Y-66868091D01*
X132810123Y-66956562D01*
X132865639Y-67097342D01*
X132865640Y-67097344D01*
X132957077Y-67217922D01*
X133074792Y-67307188D01*
X133077658Y-67309361D01*
X133201630Y-67358248D01*
X133256772Y-67401152D01*
X133279966Y-67467060D01*
X133263846Y-67535045D01*
X133243821Y-67561283D01*
X133119889Y-67685215D01*
X132994951Y-67857179D01*
X132898444Y-68046585D01*
X132832753Y-68248760D01*
X132799500Y-68458713D01*
X132799500Y-68671286D01*
X132829914Y-68863317D01*
X132832754Y-68881243D01*
X132881257Y-69030520D01*
X132898444Y-69083414D01*
X132994951Y-69272820D01*
X133119890Y-69444786D01*
X133270213Y-69595109D01*
X133442179Y-69720048D01*
X133442181Y-69720049D01*
X133442184Y-69720051D01*
X133631588Y-69816557D01*
X133833757Y-69882246D01*
X134043713Y-69915500D01*
X134043714Y-69915500D01*
X134256286Y-69915500D01*
X134256287Y-69915500D01*
X134466243Y-69882246D01*
X134668412Y-69816557D01*
X134857816Y-69720051D01*
X134879789Y-69704086D01*
X135029786Y-69595109D01*
X135029788Y-69595106D01*
X135029792Y-69595104D01*
X135180104Y-69444792D01*
X135180106Y-69444788D01*
X135180109Y-69444786D01*
X135305048Y-69272820D01*
X135305047Y-69272820D01*
X135305051Y-69272816D01*
X135401557Y-69083412D01*
X135467246Y-68881243D01*
X135500500Y-68671287D01*
X135500500Y-68470943D01*
X136749500Y-68470943D01*
X136749500Y-68629057D01*
X136760816Y-68671287D01*
X136790423Y-68781783D01*
X136790426Y-68781790D01*
X136869475Y-68918709D01*
X136869479Y-68918714D01*
X136869480Y-68918716D01*
X136981284Y-69030520D01*
X136981286Y-69030521D01*
X136981290Y-69030524D01*
X137087002Y-69091556D01*
X137118216Y-69109577D01*
X137270943Y-69150500D01*
X137270945Y-69150500D01*
X137429055Y-69150500D01*
X137429057Y-69150500D01*
X137581784Y-69109577D01*
X137718716Y-69030520D01*
X137815793Y-68933443D01*
X177149500Y-68933443D01*
X177149500Y-69091557D01*
X177165294Y-69150499D01*
X177190423Y-69244283D01*
X177190426Y-69244290D01*
X177269475Y-69381209D01*
X177269479Y-69381214D01*
X177269480Y-69381216D01*
X177381284Y-69493020D01*
X177381286Y-69493021D01*
X177381290Y-69493024D01*
X177518209Y-69572073D01*
X177518216Y-69572077D01*
X177670943Y-69613000D01*
X177670945Y-69613000D01*
X177829055Y-69613000D01*
X177829057Y-69613000D01*
X177981784Y-69572077D01*
X178118716Y-69493020D01*
X178230520Y-69381216D01*
X178309577Y-69244284D01*
X178350500Y-69091557D01*
X178350500Y-68933443D01*
X178309577Y-68780716D01*
X178246399Y-68671287D01*
X178230524Y-68643790D01*
X178230518Y-68643782D01*
X178118717Y-68531981D01*
X178118709Y-68531975D01*
X177981790Y-68452926D01*
X177981786Y-68452924D01*
X177981784Y-68452923D01*
X177829057Y-68412000D01*
X177670943Y-68412000D01*
X177518216Y-68452923D01*
X177518209Y-68452926D01*
X177381290Y-68531975D01*
X177381282Y-68531981D01*
X177269481Y-68643782D01*
X177269475Y-68643790D01*
X177190426Y-68780709D01*
X177190423Y-68780716D01*
X177149500Y-68933443D01*
X137815793Y-68933443D01*
X137830520Y-68918716D01*
X137909577Y-68781784D01*
X137950500Y-68629057D01*
X137950500Y-68470943D01*
X137909577Y-68318216D01*
X137869475Y-68248757D01*
X137830524Y-68181290D01*
X137830518Y-68181282D01*
X137718717Y-68069481D01*
X137718709Y-68069475D01*
X137581790Y-67990426D01*
X137581786Y-67990424D01*
X137581784Y-67990423D01*
X137429057Y-67949500D01*
X137270943Y-67949500D01*
X137118216Y-67990423D01*
X137118209Y-67990426D01*
X136981290Y-68069475D01*
X136981282Y-68069481D01*
X136869481Y-68181282D01*
X136869475Y-68181290D01*
X136790426Y-68318209D01*
X136790423Y-68318216D01*
X136749500Y-68470943D01*
X135500500Y-68470943D01*
X135500500Y-68458713D01*
X135467246Y-68248757D01*
X135401557Y-68046588D01*
X135305051Y-67857184D01*
X135305049Y-67857181D01*
X135305048Y-67857179D01*
X135180109Y-67685213D01*
X135056179Y-67561283D01*
X135022694Y-67499960D01*
X135027678Y-67430268D01*
X135069550Y-67374335D01*
X135098363Y-67358251D01*
X135222342Y-67309361D01*
X135342922Y-67217922D01*
X135434361Y-67097342D01*
X135489876Y-66956564D01*
X135500500Y-66868099D01*
X135500499Y-65920943D01*
X136799500Y-65920943D01*
X136799500Y-66079056D01*
X136840423Y-66231783D01*
X136840426Y-66231790D01*
X136919475Y-66368709D01*
X136919479Y-66368714D01*
X136919480Y-66368716D01*
X137031284Y-66480520D01*
X137031286Y-66480521D01*
X137031290Y-66480524D01*
X137168209Y-66559573D01*
X137168216Y-66559577D01*
X137320943Y-66600500D01*
X137320945Y-66600500D01*
X137479055Y-66600500D01*
X137479057Y-66600500D01*
X137631784Y-66559577D01*
X137768716Y-66480520D01*
X137880520Y-66368716D01*
X137895333Y-66343058D01*
X137927908Y-66286638D01*
X137940730Y-66264427D01*
X137959577Y-66231784D01*
X138000500Y-66079057D01*
X138000500Y-65920943D01*
X137959577Y-65768216D01*
X137925903Y-65709890D01*
X137880524Y-65631290D01*
X137880518Y-65631282D01*
X137768717Y-65519481D01*
X137768709Y-65519475D01*
X137631790Y-65440426D01*
X137631786Y-65440424D01*
X137631784Y-65440423D01*
X137479057Y-65399500D01*
X137320943Y-65399500D01*
X137168216Y-65440423D01*
X137168209Y-65440426D01*
X137031290Y-65519475D01*
X137031282Y-65519481D01*
X136919481Y-65631282D01*
X136919475Y-65631290D01*
X136840426Y-65768209D01*
X136840423Y-65768216D01*
X136799500Y-65920943D01*
X135500499Y-65920943D01*
X135500499Y-65181902D01*
X135489876Y-65093436D01*
X135434361Y-64952658D01*
X135434359Y-64952655D01*
X135342922Y-64832077D01*
X135222344Y-64740640D01*
X135222342Y-64740639D01*
X135081564Y-64685124D01*
X135081561Y-64685123D01*
X134993099Y-64674500D01*
X133306908Y-64674500D01*
X133218437Y-64685123D01*
X133077657Y-64740639D01*
X133077655Y-64740640D01*
X132957077Y-64832077D01*
X132865640Y-64952655D01*
X132854380Y-64981209D01*
X132810287Y-65093024D01*
X132810124Y-65093437D01*
X132810123Y-65093438D01*
X132799500Y-65181900D01*
X130500500Y-65181900D01*
X130500500Y-64533443D01*
X177249500Y-64533443D01*
X177249500Y-64691557D01*
X177287153Y-64832078D01*
X177290423Y-64844283D01*
X177290426Y-64844290D01*
X177369475Y-64981209D01*
X177369479Y-64981214D01*
X177369480Y-64981216D01*
X177481284Y-65093020D01*
X177481286Y-65093021D01*
X177481290Y-65093024D01*
X177618209Y-65172073D01*
X177618216Y-65172077D01*
X177770943Y-65213000D01*
X177770945Y-65213000D01*
X177929055Y-65213000D01*
X177929057Y-65213000D01*
X178081784Y-65172077D01*
X178218716Y-65093020D01*
X178330520Y-64981216D01*
X178409577Y-64844284D01*
X178450500Y-64691557D01*
X178450500Y-64533443D01*
X178409577Y-64380716D01*
X178404587Y-64372073D01*
X178330524Y-64243790D01*
X178330518Y-64243782D01*
X178218717Y-64131981D01*
X178218709Y-64131975D01*
X178081790Y-64052926D01*
X178081786Y-64052924D01*
X178081784Y-64052923D01*
X177929057Y-64012000D01*
X177770943Y-64012000D01*
X177618216Y-64052923D01*
X177618209Y-64052926D01*
X177481290Y-64131975D01*
X177481282Y-64131981D01*
X177369481Y-64243782D01*
X177369475Y-64243790D01*
X177290426Y-64380709D01*
X177290423Y-64380716D01*
X177249500Y-64533443D01*
X130500500Y-64533443D01*
X130500500Y-63733443D01*
X152922632Y-63733443D01*
X152922632Y-63891556D01*
X152963555Y-64044283D01*
X152963558Y-64044290D01*
X153042607Y-64181209D01*
X153042611Y-64181214D01*
X153042612Y-64181216D01*
X153154416Y-64293020D01*
X153154418Y-64293021D01*
X153154422Y-64293024D01*
X153197364Y-64317816D01*
X153291348Y-64372077D01*
X153444075Y-64413000D01*
X153444077Y-64413000D01*
X153602187Y-64413000D01*
X153602189Y-64413000D01*
X153754916Y-64372077D01*
X153891848Y-64293020D01*
X154003652Y-64181216D01*
X154082709Y-64044284D01*
X154123632Y-63891557D01*
X154123632Y-63733443D01*
X154082709Y-63580716D01*
X154038252Y-63503713D01*
X199399500Y-63503713D01*
X199399500Y-63716287D01*
X199432754Y-63926243D01*
X199460618Y-64012000D01*
X199498444Y-64128414D01*
X199594951Y-64317820D01*
X199719890Y-64489786D01*
X199870209Y-64640105D01*
X199870692Y-64640456D01*
X199870831Y-64640636D01*
X199873921Y-64643276D01*
X199873366Y-64643924D01*
X199913357Y-64695787D01*
X199919336Y-64765400D01*
X199886730Y-64827195D01*
X199841141Y-64856955D01*
X199707911Y-64906648D01*
X199592811Y-64992811D01*
X199506649Y-65107909D01*
X199456401Y-65242628D01*
X199450000Y-65302156D01*
X199450000Y-65900000D01*
X200259252Y-65900000D01*
X200237482Y-65937708D01*
X200200000Y-66077591D01*
X200200000Y-66222409D01*
X200237482Y-66362292D01*
X200259252Y-66400000D01*
X199450001Y-66400000D01*
X199450001Y-66997830D01*
X199456402Y-67057377D01*
X199506647Y-67192087D01*
X199592811Y-67307188D01*
X199707909Y-67393350D01*
X199842629Y-67443598D01*
X199842628Y-67443598D01*
X199902164Y-67449999D01*
X200499999Y-67449999D01*
X200500000Y-67449998D01*
X200500000Y-66640747D01*
X200537708Y-66662518D01*
X200677591Y-66700000D01*
X200822409Y-66700000D01*
X200962292Y-66662518D01*
X201000000Y-66640747D01*
X201000000Y-67449999D01*
X201597823Y-67449999D01*
X201597830Y-67449998D01*
X201657377Y-67443597D01*
X201792087Y-67393352D01*
X201907188Y-67307188D01*
X201993350Y-67192090D01*
X202043598Y-67057371D01*
X202049999Y-66997843D01*
X202050000Y-66997826D01*
X202050000Y-66400000D01*
X201240748Y-66400000D01*
X201262518Y-66362292D01*
X201300000Y-66222409D01*
X201300000Y-66077591D01*
X201262518Y-65937708D01*
X201240748Y-65900000D01*
X202049999Y-65900000D01*
X202049999Y-65302176D01*
X202049998Y-65302169D01*
X202043597Y-65242622D01*
X201993352Y-65107912D01*
X201907188Y-64992811D01*
X201792087Y-64906647D01*
X201792088Y-64906647D01*
X201658859Y-64856955D01*
X201602925Y-64815084D01*
X201578509Y-64749619D01*
X201593361Y-64681346D01*
X201626450Y-64643710D01*
X201626079Y-64643276D01*
X201629105Y-64640690D01*
X201629318Y-64640449D01*
X201629788Y-64640107D01*
X201629788Y-64640106D01*
X201629792Y-64640104D01*
X201780104Y-64489792D01*
X201780106Y-64489788D01*
X201780109Y-64489786D01*
X201905048Y-64317820D01*
X201905047Y-64317820D01*
X201905051Y-64317816D01*
X202001557Y-64128412D01*
X202067246Y-63926243D01*
X202100500Y-63716287D01*
X202100500Y-63503713D01*
X202067246Y-63293757D01*
X202001557Y-63091588D01*
X201905051Y-62902184D01*
X201905049Y-62902181D01*
X201905048Y-62902179D01*
X201780109Y-62730213D01*
X201629786Y-62579890D01*
X201457820Y-62454951D01*
X201268414Y-62358444D01*
X201268413Y-62358443D01*
X201268412Y-62358443D01*
X201066243Y-62292754D01*
X201066241Y-62292753D01*
X201066240Y-62292753D01*
X200904957Y-62267208D01*
X200856287Y-62259500D01*
X200643713Y-62259500D01*
X200595042Y-62267208D01*
X200433760Y-62292753D01*
X200433757Y-62292754D01*
X200277415Y-62343553D01*
X200231585Y-62358444D01*
X200042179Y-62454951D01*
X199870213Y-62579890D01*
X199719890Y-62730213D01*
X199594951Y-62902179D01*
X199498444Y-63091585D01*
X199432753Y-63293760D01*
X199408992Y-63443782D01*
X199399500Y-63503713D01*
X154038252Y-63503713D01*
X154003652Y-63443784D01*
X153891848Y-63331980D01*
X153891846Y-63331979D01*
X153891841Y-63331975D01*
X153754922Y-63252926D01*
X153754918Y-63252924D01*
X153754916Y-63252923D01*
X153602189Y-63212000D01*
X153444075Y-63212000D01*
X153291348Y-63252923D01*
X153291341Y-63252926D01*
X153154422Y-63331975D01*
X153154414Y-63331981D01*
X153042613Y-63443782D01*
X153042607Y-63443790D01*
X152963558Y-63580709D01*
X152963555Y-63580716D01*
X152922632Y-63733443D01*
X130500500Y-63733443D01*
X130500500Y-58606900D01*
X132749500Y-58606900D01*
X132749500Y-60293091D01*
X132760123Y-60381562D01*
X132815639Y-60522342D01*
X132815640Y-60522344D01*
X132907077Y-60642922D01*
X132973147Y-60693024D01*
X133027658Y-60734361D01*
X133168436Y-60789876D01*
X133242436Y-60798762D01*
X133256892Y-60800499D01*
X133256901Y-60800500D01*
X133260581Y-60800942D01*
X133260448Y-60802047D01*
X133321741Y-60824082D01*
X133364274Y-60879515D01*
X133367905Y-60904352D01*
X133929766Y-61466212D01*
X133887708Y-61477482D01*
X133762292Y-61549890D01*
X133659890Y-61652292D01*
X133587482Y-61777708D01*
X133576212Y-61819765D01*
X133020524Y-61264077D01*
X133020523Y-61264077D01*
X132988143Y-61308644D01*
X132895244Y-61490968D01*
X132832009Y-61685582D01*
X132800000Y-61887682D01*
X132800000Y-62092317D01*
X132832009Y-62294417D01*
X132895244Y-62489031D01*
X132988141Y-62671350D01*
X132988147Y-62671359D01*
X133020523Y-62715921D01*
X133020524Y-62715922D01*
X133576212Y-62160234D01*
X133587482Y-62202292D01*
X133659890Y-62327708D01*
X133762292Y-62430110D01*
X133887708Y-62502518D01*
X133929765Y-62513787D01*
X133374076Y-63069474D01*
X133418650Y-63101859D01*
X133600968Y-63194755D01*
X133795582Y-63257990D01*
X133997683Y-63290000D01*
X134202317Y-63290000D01*
X134404417Y-63257990D01*
X134599031Y-63194755D01*
X134781349Y-63101859D01*
X134825921Y-63069474D01*
X134270234Y-62513787D01*
X134312292Y-62502518D01*
X134437708Y-62430110D01*
X134540110Y-62327708D01*
X134612518Y-62202292D01*
X134623787Y-62160235D01*
X135179474Y-62715922D01*
X135179474Y-62715921D01*
X135211859Y-62671349D01*
X135304755Y-62489031D01*
X135367990Y-62294417D01*
X135400000Y-62092317D01*
X135400000Y-61887682D01*
X135385275Y-61794714D01*
X135383490Y-61783443D01*
X153099500Y-61783443D01*
X153099500Y-61941556D01*
X153140423Y-62094283D01*
X153140426Y-62094290D01*
X153219475Y-62231209D01*
X153219479Y-62231214D01*
X153219480Y-62231216D01*
X153331284Y-62343020D01*
X153331286Y-62343021D01*
X153331290Y-62343024D01*
X153357999Y-62358444D01*
X153468216Y-62422077D01*
X153620943Y-62463000D01*
X153620945Y-62463000D01*
X153779055Y-62463000D01*
X153779057Y-62463000D01*
X153931784Y-62422077D01*
X154068716Y-62343020D01*
X154180520Y-62231216D01*
X154259577Y-62094284D01*
X154300500Y-61941557D01*
X154300500Y-61783443D01*
X154259577Y-61630716D01*
X154212913Y-61549890D01*
X154180524Y-61493790D01*
X154180518Y-61493782D01*
X154068717Y-61381981D01*
X154068709Y-61381975D01*
X153931790Y-61302926D01*
X153931786Y-61302924D01*
X153931784Y-61302923D01*
X153779057Y-61262000D01*
X153620943Y-61262000D01*
X153468216Y-61302923D01*
X153468209Y-61302926D01*
X153331290Y-61381975D01*
X153331282Y-61381981D01*
X153219481Y-61493782D01*
X153219475Y-61493790D01*
X153140426Y-61630709D01*
X153140423Y-61630716D01*
X153099500Y-61783443D01*
X135383490Y-61783443D01*
X135367990Y-61685582D01*
X135304755Y-61490968D01*
X135211859Y-61308650D01*
X135179474Y-61264077D01*
X135179474Y-61264076D01*
X134623787Y-61819764D01*
X134612518Y-61777708D01*
X134540110Y-61652292D01*
X134437708Y-61549890D01*
X134312292Y-61477482D01*
X134270233Y-61466212D01*
X134834485Y-60901961D01*
X134842128Y-60865578D01*
X134891178Y-60815820D01*
X134939516Y-60801750D01*
X134939419Y-60800940D01*
X134943091Y-60800499D01*
X134943098Y-60800499D01*
X135031564Y-60789876D01*
X135172342Y-60734361D01*
X135292922Y-60642922D01*
X135384361Y-60522342D01*
X135439876Y-60381564D01*
X135450500Y-60293099D01*
X135450500Y-60133443D01*
X177149500Y-60133443D01*
X177149500Y-60291557D01*
X177173618Y-60381564D01*
X177190423Y-60444283D01*
X177190426Y-60444290D01*
X177269475Y-60581209D01*
X177269479Y-60581214D01*
X177269480Y-60581216D01*
X177381284Y-60693020D01*
X177381286Y-60693021D01*
X177381290Y-60693024D01*
X177452889Y-60734361D01*
X177518216Y-60772077D01*
X177670943Y-60813000D01*
X177670945Y-60813000D01*
X177829055Y-60813000D01*
X177829057Y-60813000D01*
X177981784Y-60772077D01*
X178118716Y-60693020D01*
X178230520Y-60581216D01*
X178309577Y-60444284D01*
X178350500Y-60291557D01*
X178350500Y-60133443D01*
X178309577Y-59980716D01*
X178309573Y-59980709D01*
X178230524Y-59843790D01*
X178230518Y-59843782D01*
X178118717Y-59731981D01*
X178118709Y-59731975D01*
X177981790Y-59652926D01*
X177981786Y-59652924D01*
X177981784Y-59652923D01*
X177829057Y-59612000D01*
X177670943Y-59612000D01*
X177518216Y-59652923D01*
X177518209Y-59652926D01*
X177381290Y-59731975D01*
X177381282Y-59731981D01*
X177269481Y-59843782D01*
X177269475Y-59843790D01*
X177190426Y-59980709D01*
X177190423Y-59980716D01*
X177149500Y-60133443D01*
X135450500Y-60133443D01*
X135450499Y-58606902D01*
X135439876Y-58518436D01*
X135384361Y-58377658D01*
X135384359Y-58377655D01*
X135292922Y-58257077D01*
X135172344Y-58165640D01*
X135172342Y-58165639D01*
X135031564Y-58110124D01*
X135031561Y-58110123D01*
X134943099Y-58099500D01*
X133256908Y-58099500D01*
X133168437Y-58110123D01*
X133027657Y-58165639D01*
X133027655Y-58165640D01*
X132907077Y-58257077D01*
X132815640Y-58377655D01*
X132760124Y-58518437D01*
X132760123Y-58518438D01*
X132749500Y-58606900D01*
X130500500Y-58606900D01*
X130500500Y-54893713D01*
X132649500Y-54893713D01*
X132649500Y-55106286D01*
X132682753Y-55316239D01*
X132748444Y-55518414D01*
X132844951Y-55707820D01*
X132969890Y-55879786D01*
X133120213Y-56030109D01*
X133292179Y-56155048D01*
X133292181Y-56155049D01*
X133292184Y-56155051D01*
X133481588Y-56251557D01*
X133683757Y-56317246D01*
X133893713Y-56350500D01*
X133893714Y-56350500D01*
X134106286Y-56350500D01*
X134106287Y-56350500D01*
X134316243Y-56317246D01*
X134518412Y-56251557D01*
X134707816Y-56155051D01*
X134729789Y-56139086D01*
X134879786Y-56030109D01*
X134879788Y-56030106D01*
X134879792Y-56030104D01*
X135030104Y-55879792D01*
X135030106Y-55879788D01*
X135030109Y-55879786D01*
X135155048Y-55707820D01*
X135155047Y-55707820D01*
X135155051Y-55707816D01*
X135251557Y-55518412D01*
X135317246Y-55316243D01*
X135350500Y-55106287D01*
X135350500Y-54893713D01*
X199649500Y-54893713D01*
X199649500Y-55106286D01*
X199682753Y-55316239D01*
X199748444Y-55518414D01*
X199844951Y-55707820D01*
X199969890Y-55879786D01*
X200120213Y-56030109D01*
X200292179Y-56155048D01*
X200292181Y-56155049D01*
X200292184Y-56155051D01*
X200481588Y-56251557D01*
X200683757Y-56317246D01*
X200893713Y-56350500D01*
X200893714Y-56350500D01*
X201106286Y-56350500D01*
X201106287Y-56350500D01*
X201316243Y-56317246D01*
X201518412Y-56251557D01*
X201707816Y-56155051D01*
X201729789Y-56139086D01*
X201879786Y-56030109D01*
X201879788Y-56030106D01*
X201879792Y-56030104D01*
X202030104Y-55879792D01*
X202030106Y-55879788D01*
X202030109Y-55879786D01*
X202155048Y-55707820D01*
X202155047Y-55707820D01*
X202155051Y-55707816D01*
X202251557Y-55518412D01*
X202317246Y-55316243D01*
X202350500Y-55106287D01*
X202350500Y-54893713D01*
X202317246Y-54683757D01*
X202251557Y-54481588D01*
X202155051Y-54292184D01*
X202155049Y-54292181D01*
X202155048Y-54292179D01*
X202030109Y-54120213D01*
X201879786Y-53969890D01*
X201707820Y-53844951D01*
X201518414Y-53748444D01*
X201518413Y-53748443D01*
X201518412Y-53748443D01*
X201316243Y-53682754D01*
X201316241Y-53682753D01*
X201316240Y-53682753D01*
X201154957Y-53657208D01*
X201106287Y-53649500D01*
X200893713Y-53649500D01*
X200845042Y-53657208D01*
X200683760Y-53682753D01*
X200481585Y-53748444D01*
X200292179Y-53844951D01*
X200120213Y-53969890D01*
X199969890Y-54120213D01*
X199844951Y-54292179D01*
X199748444Y-54481585D01*
X199682753Y-54683760D01*
X199649500Y-54893713D01*
X135350500Y-54893713D01*
X135317246Y-54683757D01*
X135251557Y-54481588D01*
X135155051Y-54292184D01*
X135155049Y-54292181D01*
X135155048Y-54292179D01*
X135030109Y-54120213D01*
X134879786Y-53969890D01*
X134707820Y-53844951D01*
X134518414Y-53748444D01*
X134518413Y-53748443D01*
X134518412Y-53748443D01*
X134316243Y-53682754D01*
X134316241Y-53682753D01*
X134316240Y-53682753D01*
X134154957Y-53657208D01*
X134106287Y-53649500D01*
X133893713Y-53649500D01*
X133845042Y-53657208D01*
X133683760Y-53682753D01*
X133481585Y-53748444D01*
X133292179Y-53844951D01*
X133120213Y-53969890D01*
X132969890Y-54120213D01*
X132844951Y-54292179D01*
X132748444Y-54481585D01*
X132682753Y-54683760D01*
X132649500Y-54893713D01*
X130500500Y-54893713D01*
X130500500Y-54003750D01*
X130500726Y-53996263D01*
X130518271Y-53706205D01*
X130520076Y-53691340D01*
X130551302Y-53520943D01*
X153499500Y-53520943D01*
X153499500Y-53679057D01*
X153539418Y-53828031D01*
X153540423Y-53831783D01*
X153540426Y-53831790D01*
X153619475Y-53968709D01*
X153619479Y-53968714D01*
X153619480Y-53968716D01*
X153731284Y-54080520D01*
X153731286Y-54080521D01*
X153731290Y-54080524D01*
X153868209Y-54159573D01*
X153868216Y-54159577D01*
X154020943Y-54200500D01*
X154020945Y-54200500D01*
X154179055Y-54200500D01*
X154179057Y-54200500D01*
X154331784Y-54159577D01*
X154468716Y-54080520D01*
X154580520Y-53968716D01*
X154659577Y-53831784D01*
X154700500Y-53679057D01*
X154700500Y-53520943D01*
X154659577Y-53368216D01*
X154659573Y-53368209D01*
X154580524Y-53231290D01*
X154580518Y-53231282D01*
X154468717Y-53119481D01*
X154468709Y-53119475D01*
X154331790Y-53040426D01*
X154331786Y-53040424D01*
X154331784Y-53040423D01*
X154179057Y-52999500D01*
X154020943Y-52999500D01*
X153868216Y-53040423D01*
X153868209Y-53040426D01*
X153731290Y-53119475D01*
X153731282Y-53119481D01*
X153619481Y-53231282D01*
X153619475Y-53231290D01*
X153540426Y-53368209D01*
X153540423Y-53368216D01*
X153499500Y-53520943D01*
X130551302Y-53520943D01*
X130571780Y-53409198D01*
X130575364Y-53394664D01*
X130660699Y-53120812D01*
X130665997Y-53106842D01*
X130783727Y-52845258D01*
X130790680Y-52832012D01*
X130830959Y-52765381D01*
X130939075Y-52586534D01*
X130947567Y-52574230D01*
X131124481Y-52348417D01*
X131134396Y-52337226D01*
X131337226Y-52134396D01*
X131348417Y-52124481D01*
X131574230Y-51947567D01*
X131586534Y-51939075D01*
X131832012Y-51790680D01*
X131845258Y-51783727D01*
X132106842Y-51665997D01*
X132120812Y-51660699D01*
X132394668Y-51575362D01*
X132409198Y-51571780D01*
X132691344Y-51520075D01*
X132706201Y-51518271D01*
X132996264Y-51500726D01*
X133003751Y-51500500D01*
X133065892Y-51500500D01*
X201934108Y-51500500D01*
X201996249Y-51500500D01*
X202003736Y-51500726D01*
G37*
%TD.AperFunction*%
%TD*%
%TA.AperFunction,Conductor*%
%TO.N,GND*%
G36*
X190214155Y-79816582D02*
G01*
X190173608Y-79886812D01*
X190139500Y-80014108D01*
X190139500Y-80145891D01*
X190173608Y-80273187D01*
X190228427Y-80368135D01*
X190340000Y-84680000D01*
X184595681Y-84680000D01*
X184539413Y-80380000D01*
X186012732Y-80380000D01*
X186012733Y-80380000D01*
X186252479Y-80127759D01*
X186252522Y-77720314D01*
X186272208Y-77653276D01*
X186289757Y-77631729D01*
X186648912Y-77280000D01*
X190148520Y-77280000D01*
X190214155Y-79816582D01*
G37*
%TD.AperFunction*%
%TA.AperFunction,Conductor*%
G36*
X184572019Y-78200720D02*
G01*
X184558915Y-78211898D01*
X184550175Y-78225539D01*
X184520510Y-78244661D01*
X184511524Y-78248779D01*
X184498848Y-77280000D01*
X185185833Y-77280000D01*
X184572019Y-78200720D01*
G37*
%TD.AperFunction*%
%TD*%
M02*
