%TF.GenerationSoftware,KiCad,Pcbnew,10.0.4*%
%TF.CreationDate,2026-07-07T21:02:38-07:00*%
%TF.ProjectId,xmit,786d6974-2e6b-4696-9361-645f70636258,rev?*%
%TF.SameCoordinates,Original*%
%TF.FileFunction,Paste,Top*%
%TF.FilePolarity,Positive*%
%FSLAX46Y46*%
G04 Gerber Fmt 4.6, Leading zero omitted, Abs format (unit mm)*
G04 Created by KiCad (PCBNEW 10.0.4) date 2026-07-07 21:02:38*
%MOMM*%
%LPD*%
G01*
G04 APERTURE LIST*
G04 Aperture macros list*
%AMRoundRect*
0 Rectangle with rounded corners*
0 $1 Rounding radius*
0 $2 $3 $4 $5 $6 $7 $8 $9 X,Y pos of 4 corners*
0 Add a 4 corners polygon primitive as box body*
4,1,4,$2,$3,$4,$5,$6,$7,$8,$9,$2,$3,0*
0 Add four circle primitives for the rounded corners*
1,1,$1+$1,$2,$3*
1,1,$1+$1,$4,$5*
1,1,$1+$1,$6,$7*
1,1,$1+$1,$8,$9*
0 Add four rect primitives between the rounded corners*
20,1,$1+$1,$2,$3,$4,$5,0*
20,1,$1+$1,$4,$5,$6,$7,0*
20,1,$1+$1,$6,$7,$8,$9,0*
20,1,$1+$1,$8,$9,$2,$3,0*%
G04 Aperture macros list end*
%ADD10RoundRect,0.250000X-0.337500X-0.475000X0.337500X-0.475000X0.337500X0.475000X-0.337500X0.475000X0*%
%ADD11RoundRect,0.218750X0.218750X0.256250X-0.218750X0.256250X-0.218750X-0.256250X0.218750X-0.256250X0*%
%ADD12RoundRect,0.150000X-0.587500X-0.150000X0.587500X-0.150000X0.587500X0.150000X-0.587500X0.150000X0*%
%ADD13RoundRect,0.135000X-0.135000X-0.185000X0.135000X-0.185000X0.135000X0.185000X-0.135000X0.185000X0*%
%ADD14RoundRect,0.250000X0.475000X-0.337500X0.475000X0.337500X-0.475000X0.337500X-0.475000X-0.337500X0*%
%ADD15RoundRect,0.250000X-0.275000X-0.350000X0.275000X-0.350000X0.275000X0.350000X-0.275000X0.350000X0*%
%ADD16RoundRect,0.150000X0.587500X0.150000X-0.587500X0.150000X-0.587500X-0.150000X0.587500X-0.150000X0*%
%ADD17RoundRect,0.135000X-0.185000X0.135000X-0.185000X-0.135000X0.185000X-0.135000X0.185000X0.135000X0*%
%ADD18RoundRect,0.200000X-0.200000X-0.275000X0.200000X-0.275000X0.200000X0.275000X-0.200000X0.275000X0*%
%ADD19RoundRect,0.250000X0.450000X-0.350000X0.450000X0.350000X-0.450000X0.350000X-0.450000X-0.350000X0*%
%ADD20RoundRect,0.150000X-0.512500X-0.150000X0.512500X-0.150000X0.512500X0.150000X-0.512500X0.150000X0*%
%ADD21RoundRect,0.250000X0.350000X-0.275000X0.350000X0.275000X-0.350000X0.275000X-0.350000X-0.275000X0*%
%ADD22RoundRect,0.200000X0.275000X-0.200000X0.275000X0.200000X-0.275000X0.200000X-0.275000X-0.200000X0*%
%ADD23RoundRect,0.250000X-0.325000X-0.275000X0.325000X-0.275000X0.325000X0.275000X-0.325000X0.275000X0*%
%ADD24RoundRect,0.062500X-0.362500X-0.062500X0.362500X-0.062500X0.362500X0.062500X-0.362500X0.062500X0*%
%ADD25RoundRect,0.062500X-0.062500X-0.362500X0.062500X-0.362500X0.062500X0.362500X-0.062500X0.362500X0*%
%ADD26RoundRect,0.250000X-0.450000X0.350000X-0.450000X-0.350000X0.450000X-0.350000X0.450000X0.350000X0*%
%ADD27RoundRect,0.250000X0.250000X0.475000X-0.250000X0.475000X-0.250000X-0.475000X0.250000X-0.475000X0*%
%ADD28RoundRect,0.200000X0.200000X0.275000X-0.200000X0.275000X-0.200000X-0.275000X0.200000X-0.275000X0*%
%ADD29RoundRect,0.250000X0.350000X0.450000X-0.350000X0.450000X-0.350000X-0.450000X0.350000X-0.450000X0*%
%ADD30RoundRect,0.250000X-0.475000X0.250000X-0.475000X-0.250000X0.475000X-0.250000X0.475000X0.250000X0*%
%ADD31RoundRect,0.250000X-0.350000X-0.450000X0.350000X-0.450000X0.350000X0.450000X-0.350000X0.450000X0*%
%ADD32RoundRect,0.250000X0.475000X-0.250000X0.475000X0.250000X-0.475000X0.250000X-0.475000X-0.250000X0*%
%ADD33RoundRect,0.218750X-0.256250X0.218750X-0.256250X-0.218750X0.256250X-0.218750X0.256250X0.218750X0*%
G04 APERTURE END LIST*
D10*
%TO.C,C210*%
X166262500Y-66817500D03*
X168337500Y-66817500D03*
%TD*%
D11*
%TO.C,D202*%
X144187500Y-68550000D03*
X142612500Y-68550000D03*
%TD*%
D12*
%TO.C,Q301*%
X192312500Y-63000000D03*
X192312500Y-64900000D03*
X194187500Y-63950000D03*
%TD*%
D13*
%TO.C,R401*%
X186680000Y-76280000D03*
X187700000Y-76280000D03*
%TD*%
D14*
%TO.C,C220*%
X171937500Y-87650000D03*
X171937500Y-85575000D03*
%TD*%
D15*
%TO.C,L202*%
X159800000Y-72147500D03*
X162100000Y-72147500D03*
%TD*%
D16*
%TO.C,Q302*%
X141637500Y-60150000D03*
X141637500Y-58250000D03*
X139762500Y-59200000D03*
%TD*%
D17*
%TO.C,R402*%
X191240000Y-78220000D03*
X191240000Y-79240000D03*
%TD*%
D18*
%TO.C,R205*%
X138825000Y-72400000D03*
X140475000Y-72400000D03*
%TD*%
D11*
%TO.C,D201*%
X144187500Y-65900000D03*
X142612500Y-65900000D03*
%TD*%
D17*
%TO.C,R403*%
X192540000Y-79370000D03*
X192540000Y-80390000D03*
%TD*%
D19*
%TO.C,R303*%
X144300000Y-60100000D03*
X144300000Y-58100000D03*
%TD*%
D20*
%TO.C,U203*%
X149262500Y-70622500D03*
X149262500Y-71572500D03*
X149262500Y-72522500D03*
X151537500Y-72522500D03*
X151537500Y-70622500D03*
%TD*%
D15*
%TO.C,L201*%
X159800000Y-63455000D03*
X162100000Y-63455000D03*
%TD*%
D21*
%TO.C,L302*%
X144050000Y-55900000D03*
X144050000Y-53600000D03*
%TD*%
D22*
%TO.C,R305*%
X185200000Y-61050000D03*
X185200000Y-59400000D03*
%TD*%
D15*
%TO.C,L203*%
X159912500Y-81122500D03*
X162212500Y-81122500D03*
%TD*%
D23*
%TO.C,U401*%
X187080000Y-79860000D03*
X187080000Y-81080000D03*
X187080000Y-82300000D03*
X188400000Y-79860000D03*
X188400000Y-81080000D03*
X188400000Y-82300000D03*
D24*
X185790000Y-79580000D03*
X185790000Y-80080000D03*
X185790000Y-80580000D03*
X185790000Y-81080000D03*
X185790000Y-81580000D03*
X185790000Y-82080000D03*
X185790000Y-82580000D03*
D25*
X186740000Y-83530000D03*
X187240000Y-83530000D03*
X187740000Y-83530000D03*
X188240000Y-83530000D03*
X188740000Y-83530000D03*
D24*
X189690000Y-82580000D03*
X189690000Y-82080000D03*
X189690000Y-81580000D03*
X189690000Y-81080000D03*
X189690000Y-80580000D03*
X189690000Y-80080000D03*
X189690000Y-79580000D03*
D25*
X188740000Y-78630000D03*
X188240000Y-78630000D03*
X187740000Y-78630000D03*
X187240000Y-78630000D03*
X186740000Y-78630000D03*
%TD*%
D20*
%TO.C,U206*%
X175312500Y-61312500D03*
X175312500Y-62262500D03*
X175312500Y-63212500D03*
X177587500Y-63212500D03*
X177587500Y-61312500D03*
%TD*%
D11*
%TO.C,D203*%
X144187500Y-72400000D03*
X142612500Y-72400000D03*
%TD*%
D26*
%TO.C,R201*%
X141150000Y-78700000D03*
X141150000Y-80700000D03*
%TD*%
D21*
%TO.C,L207*%
X165387500Y-81030000D03*
X165387500Y-78730000D03*
%TD*%
D10*
%TO.C,C205*%
X159912500Y-59862500D03*
X161987500Y-59862500D03*
%TD*%
D27*
%TO.C,C305*%
X157387500Y-53650000D03*
X155487500Y-53650000D03*
%TD*%
D10*
%TO.C,C207*%
X160025000Y-77742500D03*
X162100000Y-77742500D03*
%TD*%
D15*
%TO.C,L301*%
X186200000Y-67250000D03*
X188500000Y-67250000D03*
%TD*%
D10*
%TO.C,C206*%
X159912500Y-68567500D03*
X161987500Y-68567500D03*
%TD*%
D20*
%TO.C,U205*%
X149430000Y-87790000D03*
X149430000Y-88740000D03*
X149430000Y-89690000D03*
X151705000Y-89690000D03*
X151705000Y-87790000D03*
%TD*%
%TO.C,U202*%
X149612500Y-61879167D03*
X149612500Y-62829167D03*
X149612500Y-63779167D03*
X151887500Y-63779167D03*
X151887500Y-61879167D03*
%TD*%
D14*
%TO.C,C215*%
X168687500Y-80917500D03*
X168687500Y-78842500D03*
%TD*%
%TO.C,C216*%
X168787500Y-89712500D03*
X168787500Y-87637500D03*
%TD*%
D28*
%TO.C,R204*%
X140375000Y-68550000D03*
X138725000Y-68550000D03*
%TD*%
D10*
%TO.C,C211*%
X166312500Y-75992500D03*
X168387500Y-75992500D03*
%TD*%
D29*
%TO.C,R304*%
X143800000Y-62450000D03*
X141800000Y-62450000D03*
%TD*%
D30*
%TO.C,C302*%
X141900000Y-54462500D03*
X141900000Y-56362500D03*
%TD*%
D20*
%TO.C,U209*%
X175300000Y-87525000D03*
X175300000Y-88475000D03*
X175300000Y-89425000D03*
X177575000Y-89425000D03*
X177575000Y-87525000D03*
%TD*%
D14*
%TO.C,C213*%
X169362500Y-63362500D03*
X169362500Y-61287500D03*
%TD*%
D26*
%TO.C,R302*%
X189350000Y-58500000D03*
X189350000Y-60500000D03*
%TD*%
D10*
%TO.C,C208*%
X160250000Y-86532500D03*
X162325000Y-86532500D03*
%TD*%
D31*
%TO.C,R406*%
X193950000Y-81700000D03*
X195950000Y-81700000D03*
%TD*%
D32*
%TO.C,C304*%
X146900000Y-55550000D03*
X146900000Y-53650000D03*
%TD*%
D30*
%TO.C,C301*%
X186300000Y-62850000D03*
X186300000Y-64750000D03*
%TD*%
D21*
%TO.C,L205*%
X165850000Y-63475000D03*
X165850000Y-61175000D03*
%TD*%
%TO.C,L206*%
X165800000Y-72155000D03*
X165800000Y-69855000D03*
%TD*%
D18*
%TO.C,R203*%
X138725000Y-66000000D03*
X140375000Y-66000000D03*
%TD*%
D14*
%TO.C,C217*%
X172050000Y-61312500D03*
X172050000Y-59237500D03*
%TD*%
D20*
%TO.C,U208*%
X175312500Y-78892500D03*
X175312500Y-79842500D03*
X175312500Y-80792500D03*
X177587500Y-80792500D03*
X177587500Y-78892500D03*
%TD*%
D26*
%TO.C,R301*%
X189450000Y-62850000D03*
X189450000Y-64850000D03*
%TD*%
D33*
%TO.C,D302*%
X182200000Y-55387500D03*
X182200000Y-56962500D03*
%TD*%
D20*
%TO.C,U204*%
X149712500Y-79162500D03*
X149712500Y-80112500D03*
X149712500Y-81062500D03*
X151987500Y-81062500D03*
X151987500Y-79162500D03*
%TD*%
D26*
%TO.C,R202*%
X141200000Y-83300000D03*
X141200000Y-85300000D03*
%TD*%
D20*
%TO.C,U201*%
X143622621Y-81060000D03*
X143622621Y-82010000D03*
X143622621Y-82960000D03*
X145897621Y-82960000D03*
X145897621Y-81060000D03*
%TD*%
D27*
%TO.C,C306*%
X145350000Y-77100000D03*
X143450000Y-77100000D03*
%TD*%
D14*
%TO.C,C214*%
X169100000Y-72042500D03*
X169100000Y-69967500D03*
%TD*%
%TO.C,C203*%
X156712500Y-81130000D03*
X156712500Y-79055000D03*
%TD*%
D15*
%TO.C,L204*%
X160137500Y-89862500D03*
X162437500Y-89862500D03*
%TD*%
D22*
%TO.C,R306*%
X182200000Y-61050000D03*
X182200000Y-59400000D03*
%TD*%
D10*
%TO.C,C212*%
X166450000Y-84412500D03*
X168525000Y-84412500D03*
%TD*%
%TO.C,C402*%
X181402500Y-82680000D03*
X183477500Y-82680000D03*
%TD*%
D14*
%TO.C,C219*%
X171650000Y-78880000D03*
X171650000Y-76805000D03*
%TD*%
D10*
%TO.C,C209*%
X166462500Y-58112500D03*
X168537500Y-58112500D03*
%TD*%
D14*
%TO.C,C202*%
X156300000Y-72505000D03*
X156300000Y-70430000D03*
%TD*%
D27*
%TO.C,C303*%
X192350000Y-67100000D03*
X190450000Y-67100000D03*
%TD*%
D14*
%TO.C,C204*%
X156837500Y-89850000D03*
X156837500Y-87775000D03*
%TD*%
D20*
%TO.C,U301*%
X150500000Y-53600000D03*
X150500000Y-54550000D03*
X150500000Y-55500000D03*
X152775000Y-55500000D03*
X152775000Y-53600000D03*
%TD*%
D17*
%TO.C,R404*%
X191340000Y-80670000D03*
X191340000Y-81690000D03*
%TD*%
D20*
%TO.C,U207*%
X175362500Y-70005000D03*
X175362500Y-70955000D03*
X175362500Y-71905000D03*
X177637500Y-71905000D03*
X177637500Y-70005000D03*
%TD*%
D10*
%TO.C,C401*%
X181315000Y-79580000D03*
X183390000Y-79580000D03*
%TD*%
D31*
%TO.C,R405*%
X193950000Y-78050000D03*
X195950000Y-78050000D03*
%TD*%
D11*
%TO.C,D204*%
X144187500Y-74900000D03*
X142612500Y-74900000D03*
%TD*%
D21*
%TO.C,L208*%
X165587500Y-89812500D03*
X165587500Y-87512500D03*
%TD*%
D33*
%TO.C,D301*%
X185200000Y-55387500D03*
X185200000Y-56962500D03*
%TD*%
D14*
%TO.C,C201*%
X156700000Y-63437500D03*
X156700000Y-61362500D03*
%TD*%
D18*
%TO.C,R206*%
X138825000Y-74900000D03*
X140475000Y-74900000D03*
%TD*%
D14*
%TO.C,C218*%
X171900000Y-70137500D03*
X171900000Y-68062500D03*
%TD*%
M02*
