M48
; DRILL file KiCad 10.0.4 date 2026-07-07T21:02:38
; FORMAT={-:-/ absolute / inch / decimal}
; #@! TF.CreationDate,2026-07-07T21:02:38-07:00
; #@! TF.GenerationSoftware,Kicad,Pcbnew,10.0.4
; #@! TF.FileFunction,Plated,1,4,PTH
FMAT,2
INCH
; #@! TA.AperFunction,Plated,PTH,ComponentDrill
T1C0.0079
; #@! TA.AperFunction,Plated,PTH,ViaDrill
T2C0.0118
; #@! TA.AperFunction,Plated,PTH,ComponentDrill
T3C0.0315
; #@! TA.AperFunction,Plated,PTH,ComponentDrill
T4C0.0433
%
G90
G05
T1
X7.349Y-3.1301
X7.349Y-3.1715
X7.349Y-3.2128
X7.349Y-3.2541
X7.3913Y-3.1301
X7.3913Y-3.1715
X7.3913Y-3.2128
X7.3913Y-3.2541
X7.4337Y-3.1301
X7.4337Y-3.1715
X7.4337Y-3.2128
X7.4337Y-3.2541
T2
X5.2106Y-3.3976
X5.2126Y-3.0531
X5.337Y-3.1776
X5.337Y-3.276
X5.4075Y-2.6988
X5.4094Y-2.5984
X5.4094Y-2.8528
X5.4114Y-2.9488
X5.5Y-3.3504
X5.5579Y-3.4008
X5.6953Y-3.2642
X5.7307Y-3.1323
X5.7524Y-3.2228
X5.7638Y-3.0512
X5.872Y-2.906
X5.8735Y-3.5736
X5.874Y-2.1476
X5.8839Y-2.5438
X5.8878Y-3.2406
X6.0354Y-2.8539
X6.0374Y-2.783
X6.0399Y-3.1166
X6.0401Y-3.5331
X6.0427Y-3.1918
X6.0442Y-2.5123
X6.0504Y-3.4563
X6.0512Y-2.4355
X6.0669Y-2.1102
X6.0901Y-2.575
X6.0984Y-2.9279
X6.1122Y-3.2595
X6.2185Y-2.2249
X6.2283Y-2.9279
X6.2421Y-3.2595
X6.2436Y-2.575
X6.2441Y-2.2958
X6.2933Y-2.7738
X6.2987Y-2.4313
X6.3012Y-3.1291
X6.3145Y-3.4749
X6.3681Y-2.7738
X6.3735Y-2.4313
X6.376Y-3.1291
X6.3893Y-3.4749
X6.4232Y-2.2938
X6.4449Y-2.9279
X6.4587Y-3.2595
X6.4601Y-2.575
X6.4921Y-2.3548
X6.5Y-2.6956
X6.5197Y-3.0509
X6.5256Y-3.3925
X6.563Y-2.3548
X6.5709Y-2.6956
X6.5728Y-3.1139
X6.5743Y-3.1844
X6.5787Y-3.4555
X6.5802Y-3.5261
X6.5886Y-2.9279
X6.5891Y-2.7603
X6.5906Y-2.8309
X6.5906Y-3.0509
X6.5945Y-2.4198
X6.596Y-2.4904
X6.5965Y-3.3925
X6.6024Y-3.2595
X6.6038Y-2.575
X6.6476Y-2.3548
X6.6555Y-2.6956
X6.6752Y-3.0509
X6.6811Y-3.3925
X6.8209Y-2.9279
X6.8346Y-3.2595
X6.8361Y-2.575
X6.9941Y-3.2261
X6.998Y-2.3706
X6.998Y-2.717
X6.998Y-3.0714
X6.9995Y-2.8944
X6.9995Y-3.5697
X7.002Y-2.5438
X7.002Y-3.4083
X7.0335Y-3.3819
X7.1241Y-3.0701
X7.3524Y-3.0591
X7.374Y-2.748
X7.3878Y-3.0571
X7.4327Y-3.0012
X7.5055Y-3.1528
X7.5886Y-3.0472
X7.6359Y-3.1488
X7.6378Y-2.7913
X7.7462Y-3.1488
X7.8307Y-2.8706
X8.0026Y-2.6057
T3
X7.6224Y-2.8937
X7.6224Y-3.3937
X7.7224Y-2.8937
X7.7224Y-3.3937
T4
X5.2795Y-2.3406
X5.2795Y-2.4406
X5.2815Y-2.5994
X5.2815Y-2.6994
X5.2815Y-2.8602
X5.2815Y-2.9602
X7.9035Y-2.5043
X7.9035Y-2.6043
X7.9055Y-3.0732
X7.9055Y-3.1732
M30
