%TF.GenerationSoftware,KiCad,Pcbnew,10.0.4*%
%TF.CreationDate,2026-07-07T21:02:38-07:00*%
%TF.ProjectId,xmit,786d6974-2e6b-4696-9361-645f70636258,rev?*%
%TF.SameCoordinates,Original*%
%TF.FileFunction,Legend,Bot*%
%TF.FilePolarity,Positive*%
%FSLAX46Y46*%
G04 Gerber Fmt 4.6, Leading zero omitted, Abs format (unit mm)*
G04 Created by KiCad (PCBNEW 10.0.4) date 2026-07-07 21:02:38*
%MOMM*%
%LPD*%
G01*
G04 APERTURE LIST*
G04 Aperture macros list*
%AMRoundRect*
0 Rectangle with rounded corners*
0 $1 Rounding radius*
0 $2 $3 $4 $5 $6 $7 $8 $9 X,Y pos of 4 corners*
0 Add a 4 corners polygon primitive as box body*
4,1,4,$2,$3,$4,$5,$6,$7,$8,$9,$2,$3,0*
0 Add four circle primitives for the rounded corners*
1,1,$1+$1,$2,$3*
1,1,$1+$1,$4,$5*
1,1,$1+$1,$6,$7*
1,1,$1+$1,$8,$9*
0 Add four rect primitives between the rounded corners*
20,1,$1+$1,$2,$3,$4,$5,0*
20,1,$1+$1,$4,$5,$6,$7,0*
20,1,$1+$1,$6,$7,$8,$9,0*
20,1,$1+$1,$8,$9,$2,$3,0*%
G04 Aperture macros list end*
%ADD10C,0.100000*%
%ADD11C,0.250000*%
%ADD12C,0.000000*%
%ADD13C,1.400000*%
%ADD14RoundRect,0.250001X0.799999X-0.799999X0.799999X0.799999X-0.799999X0.799999X-0.799999X-0.799999X0*%
%ADD15C,2.100000*%
%ADD16RoundRect,0.250001X-0.799999X0.799999X-0.799999X-0.799999X0.799999X-0.799999X0.799999X0.799999X0*%
%ADD17RoundRect,0.250000X-1.600000X0.425000X-1.600000X-0.425000X1.600000X-0.425000X1.600000X0.425000X0*%
%ADD18C,2.200000*%
G04 APERTURE END LIST*
D10*
X193243734Y-68364895D02*
X193243734Y-67564895D01*
X192900877Y-68364895D02*
X192900877Y-67945847D01*
X192900877Y-67945847D02*
X192938972Y-67869657D01*
X192938972Y-67869657D02*
X193015163Y-67831561D01*
X193015163Y-67831561D02*
X193129449Y-67831561D01*
X193129449Y-67831561D02*
X193205639Y-67869657D01*
X193205639Y-67869657D02*
X193243734Y-67907752D01*
X192634210Y-67831561D02*
X192329448Y-67831561D01*
X192519924Y-67564895D02*
X192519924Y-68250609D01*
X192519924Y-68250609D02*
X192481829Y-68326800D01*
X192481829Y-68326800D02*
X192405639Y-68364895D01*
X192405639Y-68364895D02*
X192329448Y-68364895D01*
X192177067Y-67831561D02*
X191872305Y-67831561D01*
X192062781Y-67564895D02*
X192062781Y-68250609D01*
X192062781Y-68250609D02*
X192024686Y-68326800D01*
X192024686Y-68326800D02*
X191948496Y-68364895D01*
X191948496Y-68364895D02*
X191872305Y-68364895D01*
X191605638Y-67831561D02*
X191605638Y-68631561D01*
X191605638Y-67869657D02*
X191529448Y-67831561D01*
X191529448Y-67831561D02*
X191377067Y-67831561D01*
X191377067Y-67831561D02*
X191300876Y-67869657D01*
X191300876Y-67869657D02*
X191262781Y-67907752D01*
X191262781Y-67907752D02*
X191224686Y-67983942D01*
X191224686Y-67983942D02*
X191224686Y-68212514D01*
X191224686Y-68212514D02*
X191262781Y-68288704D01*
X191262781Y-68288704D02*
X191300876Y-68326800D01*
X191300876Y-68326800D02*
X191377067Y-68364895D01*
X191377067Y-68364895D02*
X191529448Y-68364895D01*
X191529448Y-68364895D02*
X191605638Y-68326800D01*
X190919924Y-68326800D02*
X190843733Y-68364895D01*
X190843733Y-68364895D02*
X190691352Y-68364895D01*
X190691352Y-68364895D02*
X190615162Y-68326800D01*
X190615162Y-68326800D02*
X190577066Y-68250609D01*
X190577066Y-68250609D02*
X190577066Y-68212514D01*
X190577066Y-68212514D02*
X190615162Y-68136323D01*
X190615162Y-68136323D02*
X190691352Y-68098228D01*
X190691352Y-68098228D02*
X190805638Y-68098228D01*
X190805638Y-68098228D02*
X190881828Y-68060133D01*
X190881828Y-68060133D02*
X190919924Y-67983942D01*
X190919924Y-67983942D02*
X190919924Y-67945847D01*
X190919924Y-67945847D02*
X190881828Y-67869657D01*
X190881828Y-67869657D02*
X190805638Y-67831561D01*
X190805638Y-67831561D02*
X190691352Y-67831561D01*
X190691352Y-67831561D02*
X190615162Y-67869657D01*
X190234209Y-68288704D02*
X190196114Y-68326800D01*
X190196114Y-68326800D02*
X190234209Y-68364895D01*
X190234209Y-68364895D02*
X190272305Y-68326800D01*
X190272305Y-68326800D02*
X190234209Y-68288704D01*
X190234209Y-68288704D02*
X190234209Y-68364895D01*
X190234209Y-67869657D02*
X190196114Y-67907752D01*
X190196114Y-67907752D02*
X190234209Y-67945847D01*
X190234209Y-67945847D02*
X190272305Y-67907752D01*
X190272305Y-67907752D02*
X190234209Y-67869657D01*
X190234209Y-67869657D02*
X190234209Y-67945847D01*
X189281829Y-67526800D02*
X189967543Y-68555371D01*
X188443734Y-67526800D02*
X189129448Y-68555371D01*
X187834210Y-67831561D02*
X187834210Y-68479180D01*
X187834210Y-68479180D02*
X187872305Y-68555371D01*
X187872305Y-68555371D02*
X187910401Y-68593466D01*
X187910401Y-68593466D02*
X187986591Y-68631561D01*
X187986591Y-68631561D02*
X188100877Y-68631561D01*
X188100877Y-68631561D02*
X188177067Y-68593466D01*
X187834210Y-68326800D02*
X187910401Y-68364895D01*
X187910401Y-68364895D02*
X188062782Y-68364895D01*
X188062782Y-68364895D02*
X188138972Y-68326800D01*
X188138972Y-68326800D02*
X188177067Y-68288704D01*
X188177067Y-68288704D02*
X188215163Y-68212514D01*
X188215163Y-68212514D02*
X188215163Y-67983942D01*
X188215163Y-67983942D02*
X188177067Y-67907752D01*
X188177067Y-67907752D02*
X188138972Y-67869657D01*
X188138972Y-67869657D02*
X188062782Y-67831561D01*
X188062782Y-67831561D02*
X187910401Y-67831561D01*
X187910401Y-67831561D02*
X187834210Y-67869657D01*
X187453257Y-68364895D02*
X187453257Y-67831561D01*
X187453257Y-67564895D02*
X187491353Y-67602990D01*
X187491353Y-67602990D02*
X187453257Y-67641085D01*
X187453257Y-67641085D02*
X187415162Y-67602990D01*
X187415162Y-67602990D02*
X187453257Y-67564895D01*
X187453257Y-67564895D02*
X187453257Y-67641085D01*
X187186591Y-67831561D02*
X186881829Y-67831561D01*
X187072305Y-67564895D02*
X187072305Y-68250609D01*
X187072305Y-68250609D02*
X187034210Y-68326800D01*
X187034210Y-68326800D02*
X186958020Y-68364895D01*
X186958020Y-68364895D02*
X186881829Y-68364895D01*
X186615162Y-68364895D02*
X186615162Y-67564895D01*
X186272305Y-68364895D02*
X186272305Y-67945847D01*
X186272305Y-67945847D02*
X186310400Y-67869657D01*
X186310400Y-67869657D02*
X186386591Y-67831561D01*
X186386591Y-67831561D02*
X186500877Y-67831561D01*
X186500877Y-67831561D02*
X186577067Y-67869657D01*
X186577067Y-67869657D02*
X186615162Y-67907752D01*
X185548495Y-67831561D02*
X185548495Y-68364895D01*
X185891352Y-67831561D02*
X185891352Y-68250609D01*
X185891352Y-68250609D02*
X185853257Y-68326800D01*
X185853257Y-68326800D02*
X185777067Y-68364895D01*
X185777067Y-68364895D02*
X185662781Y-68364895D01*
X185662781Y-68364895D02*
X185586590Y-68326800D01*
X185586590Y-68326800D02*
X185548495Y-68288704D01*
X185167542Y-68364895D02*
X185167542Y-67564895D01*
X185167542Y-67869657D02*
X185091352Y-67831561D01*
X185091352Y-67831561D02*
X184938971Y-67831561D01*
X184938971Y-67831561D02*
X184862780Y-67869657D01*
X184862780Y-67869657D02*
X184824685Y-67907752D01*
X184824685Y-67907752D02*
X184786590Y-67983942D01*
X184786590Y-67983942D02*
X184786590Y-68212514D01*
X184786590Y-68212514D02*
X184824685Y-68288704D01*
X184824685Y-68288704D02*
X184862780Y-68326800D01*
X184862780Y-68326800D02*
X184938971Y-68364895D01*
X184938971Y-68364895D02*
X185091352Y-68364895D01*
X185091352Y-68364895D02*
X185167542Y-68326800D01*
X184443732Y-68288704D02*
X184405637Y-68326800D01*
X184405637Y-68326800D02*
X184443732Y-68364895D01*
X184443732Y-68364895D02*
X184481828Y-68326800D01*
X184481828Y-68326800D02*
X184443732Y-68288704D01*
X184443732Y-68288704D02*
X184443732Y-68364895D01*
X183719923Y-68326800D02*
X183796114Y-68364895D01*
X183796114Y-68364895D02*
X183948495Y-68364895D01*
X183948495Y-68364895D02*
X184024685Y-68326800D01*
X184024685Y-68326800D02*
X184062780Y-68288704D01*
X184062780Y-68288704D02*
X184100876Y-68212514D01*
X184100876Y-68212514D02*
X184100876Y-67983942D01*
X184100876Y-67983942D02*
X184062780Y-67907752D01*
X184062780Y-67907752D02*
X184024685Y-67869657D01*
X184024685Y-67869657D02*
X183948495Y-67831561D01*
X183948495Y-67831561D02*
X183796114Y-67831561D01*
X183796114Y-67831561D02*
X183719923Y-67869657D01*
X183262781Y-68364895D02*
X183338971Y-68326800D01*
X183338971Y-68326800D02*
X183377066Y-68288704D01*
X183377066Y-68288704D02*
X183415162Y-68212514D01*
X183415162Y-68212514D02*
X183415162Y-67983942D01*
X183415162Y-67983942D02*
X183377066Y-67907752D01*
X183377066Y-67907752D02*
X183338971Y-67869657D01*
X183338971Y-67869657D02*
X183262781Y-67831561D01*
X183262781Y-67831561D02*
X183148495Y-67831561D01*
X183148495Y-67831561D02*
X183072304Y-67869657D01*
X183072304Y-67869657D02*
X183034209Y-67907752D01*
X183034209Y-67907752D02*
X182996114Y-67983942D01*
X182996114Y-67983942D02*
X182996114Y-68212514D01*
X182996114Y-68212514D02*
X183034209Y-68288704D01*
X183034209Y-68288704D02*
X183072304Y-68326800D01*
X183072304Y-68326800D02*
X183148495Y-68364895D01*
X183148495Y-68364895D02*
X183262781Y-68364895D01*
X182653256Y-68364895D02*
X182653256Y-67831561D01*
X182653256Y-67907752D02*
X182615161Y-67869657D01*
X182615161Y-67869657D02*
X182538971Y-67831561D01*
X182538971Y-67831561D02*
X182424685Y-67831561D01*
X182424685Y-67831561D02*
X182348494Y-67869657D01*
X182348494Y-67869657D02*
X182310399Y-67945847D01*
X182310399Y-67945847D02*
X182310399Y-68364895D01*
X182310399Y-67945847D02*
X182272304Y-67869657D01*
X182272304Y-67869657D02*
X182196113Y-67831561D01*
X182196113Y-67831561D02*
X182081828Y-67831561D01*
X182081828Y-67831561D02*
X182005637Y-67869657D01*
X182005637Y-67869657D02*
X181967542Y-67945847D01*
X181967542Y-67945847D02*
X181967542Y-68364895D01*
X181015161Y-67526800D02*
X181700875Y-68555371D01*
X180862780Y-67831561D02*
X180558018Y-67831561D01*
X180748494Y-67564895D02*
X180748494Y-68250609D01*
X180748494Y-68250609D02*
X180710399Y-68326800D01*
X180710399Y-68326800D02*
X180634209Y-68364895D01*
X180634209Y-68364895D02*
X180558018Y-68364895D01*
X179948494Y-68364895D02*
X179948494Y-67564895D01*
X179948494Y-68326800D02*
X180024685Y-68364895D01*
X180024685Y-68364895D02*
X180177066Y-68364895D01*
X180177066Y-68364895D02*
X180253256Y-68326800D01*
X180253256Y-68326800D02*
X180291351Y-68288704D01*
X180291351Y-68288704D02*
X180329447Y-68212514D01*
X180329447Y-68212514D02*
X180329447Y-67983942D01*
X180329447Y-67983942D02*
X180291351Y-67907752D01*
X180291351Y-67907752D02*
X180253256Y-67869657D01*
X180253256Y-67869657D02*
X180177066Y-67831561D01*
X180177066Y-67831561D02*
X180024685Y-67831561D01*
X180024685Y-67831561D02*
X179948494Y-67869657D01*
X179224684Y-67831561D02*
X179224684Y-68364895D01*
X179567541Y-67831561D02*
X179567541Y-68250609D01*
X179567541Y-68250609D02*
X179529446Y-68326800D01*
X179529446Y-68326800D02*
X179453256Y-68364895D01*
X179453256Y-68364895D02*
X179338970Y-68364895D01*
X179338970Y-68364895D02*
X179262779Y-68326800D01*
X179262779Y-68326800D02*
X179224684Y-68288704D01*
X178843731Y-67831561D02*
X178843731Y-68364895D01*
X178843731Y-67907752D02*
X178805636Y-67869657D01*
X178805636Y-67869657D02*
X178729446Y-67831561D01*
X178729446Y-67831561D02*
X178615160Y-67831561D01*
X178615160Y-67831561D02*
X178538969Y-67869657D01*
X178538969Y-67869657D02*
X178500874Y-67945847D01*
X178500874Y-67945847D02*
X178500874Y-68364895D01*
X178119921Y-67831561D02*
X178119921Y-68364895D01*
X178119921Y-67907752D02*
X178081826Y-67869657D01*
X178081826Y-67869657D02*
X178005636Y-67831561D01*
X178005636Y-67831561D02*
X177891350Y-67831561D01*
X177891350Y-67831561D02*
X177815159Y-67869657D01*
X177815159Y-67869657D02*
X177777064Y-67945847D01*
X177777064Y-67945847D02*
X177777064Y-68364895D01*
X177396111Y-68364895D02*
X177396111Y-67831561D01*
X177396111Y-67564895D02*
X177434207Y-67602990D01*
X177434207Y-67602990D02*
X177396111Y-67641085D01*
X177396111Y-67641085D02*
X177358016Y-67602990D01*
X177358016Y-67602990D02*
X177396111Y-67564895D01*
X177396111Y-67564895D02*
X177396111Y-67641085D01*
X177015159Y-67831561D02*
X177015159Y-68364895D01*
X177015159Y-67907752D02*
X176977064Y-67869657D01*
X176977064Y-67869657D02*
X176900874Y-67831561D01*
X176900874Y-67831561D02*
X176786588Y-67831561D01*
X176786588Y-67831561D02*
X176710397Y-67869657D01*
X176710397Y-67869657D02*
X176672302Y-67945847D01*
X176672302Y-67945847D02*
X176672302Y-68364895D01*
X175948492Y-67831561D02*
X175948492Y-68479180D01*
X175948492Y-68479180D02*
X175986587Y-68555371D01*
X175986587Y-68555371D02*
X176024683Y-68593466D01*
X176024683Y-68593466D02*
X176100873Y-68631561D01*
X176100873Y-68631561D02*
X176215159Y-68631561D01*
X176215159Y-68631561D02*
X176291349Y-68593466D01*
X175948492Y-68326800D02*
X176024683Y-68364895D01*
X176024683Y-68364895D02*
X176177064Y-68364895D01*
X176177064Y-68364895D02*
X176253254Y-68326800D01*
X176253254Y-68326800D02*
X176291349Y-68288704D01*
X176291349Y-68288704D02*
X176329445Y-68212514D01*
X176329445Y-68212514D02*
X176329445Y-67983942D01*
X176329445Y-67983942D02*
X176291349Y-67907752D01*
X176291349Y-67907752D02*
X176253254Y-67869657D01*
X176253254Y-67869657D02*
X176177064Y-67831561D01*
X176177064Y-67831561D02*
X176024683Y-67831561D01*
X176024683Y-67831561D02*
X175948492Y-67869657D01*
X174996111Y-67526800D02*
X175681825Y-68555371D01*
X174805635Y-68364895D02*
X174386587Y-67831561D01*
X174805635Y-67831561D02*
X174386587Y-68364895D01*
X174081825Y-68364895D02*
X174081825Y-67831561D01*
X174081825Y-67907752D02*
X174043730Y-67869657D01*
X174043730Y-67869657D02*
X173967540Y-67831561D01*
X173967540Y-67831561D02*
X173853254Y-67831561D01*
X173853254Y-67831561D02*
X173777063Y-67869657D01*
X173777063Y-67869657D02*
X173738968Y-67945847D01*
X173738968Y-67945847D02*
X173738968Y-68364895D01*
X173738968Y-67945847D02*
X173700873Y-67869657D01*
X173700873Y-67869657D02*
X173624682Y-67831561D01*
X173624682Y-67831561D02*
X173510397Y-67831561D01*
X173510397Y-67831561D02*
X173434206Y-67869657D01*
X173434206Y-67869657D02*
X173396111Y-67945847D01*
X173396111Y-67945847D02*
X173396111Y-68364895D01*
X173015158Y-68364895D02*
X173015158Y-67831561D01*
X173015158Y-67564895D02*
X173053254Y-67602990D01*
X173053254Y-67602990D02*
X173015158Y-67641085D01*
X173015158Y-67641085D02*
X172977063Y-67602990D01*
X172977063Y-67602990D02*
X173015158Y-67564895D01*
X173015158Y-67564895D02*
X173015158Y-67641085D01*
X172748492Y-67831561D02*
X172443730Y-67831561D01*
X172634206Y-67564895D02*
X172634206Y-68250609D01*
X172634206Y-68250609D02*
X172596111Y-68326800D01*
X172596111Y-68326800D02*
X172519921Y-68364895D01*
X172519921Y-68364895D02*
X172443730Y-68364895D01*
D11*
X193164098Y-55640142D02*
X192364098Y-56840142D01*
X192364098Y-55640142D02*
X193164098Y-56840142D01*
X191906955Y-56840142D02*
X191906955Y-55640142D01*
X191906955Y-55640142D02*
X191506955Y-56497285D01*
X191506955Y-56497285D02*
X191106955Y-55640142D01*
X191106955Y-55640142D02*
X191106955Y-56840142D01*
X190535526Y-56840142D02*
X190535526Y-55640142D01*
X190135526Y-55640142D02*
X189449812Y-55640142D01*
X189792669Y-56840142D02*
X189792669Y-55640142D01*
X189049811Y-56725857D02*
X188992668Y-56783000D01*
X188992668Y-56783000D02*
X189049811Y-56840142D01*
X189049811Y-56840142D02*
X189106954Y-56783000D01*
X189106954Y-56783000D02*
X189049811Y-56725857D01*
X189049811Y-56725857D02*
X189049811Y-56840142D01*
X189049811Y-56097285D02*
X188992668Y-56154428D01*
X188992668Y-56154428D02*
X189049811Y-56211571D01*
X189049811Y-56211571D02*
X189106954Y-56154428D01*
X189106954Y-56154428D02*
X189049811Y-56097285D01*
X189049811Y-56097285D02*
X189049811Y-56211571D01*
X187164096Y-56211571D02*
X187564096Y-56211571D01*
X187564096Y-56840142D02*
X187564096Y-55640142D01*
X187564096Y-55640142D02*
X186992668Y-55640142D01*
X186535525Y-56840142D02*
X186535525Y-56040142D01*
X186535525Y-55640142D02*
X186592668Y-55697285D01*
X186592668Y-55697285D02*
X186535525Y-55754428D01*
X186535525Y-55754428D02*
X186478382Y-55697285D01*
X186478382Y-55697285D02*
X186535525Y-55640142D01*
X186535525Y-55640142D02*
X186535525Y-55754428D01*
X185792668Y-56840142D02*
X185906953Y-56783000D01*
X185906953Y-56783000D02*
X185964096Y-56668714D01*
X185964096Y-56668714D02*
X185964096Y-55640142D01*
X185506954Y-56040142D02*
X185049811Y-56040142D01*
X185335525Y-55640142D02*
X185335525Y-56668714D01*
X185335525Y-56668714D02*
X185278382Y-56783000D01*
X185278382Y-56783000D02*
X185164097Y-56840142D01*
X185164097Y-56840142D02*
X185049811Y-56840142D01*
X184192668Y-56783000D02*
X184306954Y-56840142D01*
X184306954Y-56840142D02*
X184535526Y-56840142D01*
X184535526Y-56840142D02*
X184649811Y-56783000D01*
X184649811Y-56783000D02*
X184706954Y-56668714D01*
X184706954Y-56668714D02*
X184706954Y-56211571D01*
X184706954Y-56211571D02*
X184649811Y-56097285D01*
X184649811Y-56097285D02*
X184535526Y-56040142D01*
X184535526Y-56040142D02*
X184306954Y-56040142D01*
X184306954Y-56040142D02*
X184192668Y-56097285D01*
X184192668Y-56097285D02*
X184135526Y-56211571D01*
X184135526Y-56211571D02*
X184135526Y-56325857D01*
X184135526Y-56325857D02*
X184706954Y-56440142D01*
X183621240Y-56840142D02*
X183621240Y-56040142D01*
X183621240Y-56268714D02*
X183564097Y-56154428D01*
X183564097Y-56154428D02*
X183506955Y-56097285D01*
X183506955Y-56097285D02*
X183392669Y-56040142D01*
X183392669Y-56040142D02*
X183278383Y-56040142D01*
X181449812Y-56840142D02*
X181449812Y-56211571D01*
X181449812Y-56211571D02*
X181506954Y-56097285D01*
X181506954Y-56097285D02*
X181621240Y-56040142D01*
X181621240Y-56040142D02*
X181849812Y-56040142D01*
X181849812Y-56040142D02*
X181964097Y-56097285D01*
X181449812Y-56783000D02*
X181564097Y-56840142D01*
X181564097Y-56840142D02*
X181849812Y-56840142D01*
X181849812Y-56840142D02*
X181964097Y-56783000D01*
X181964097Y-56783000D02*
X182021240Y-56668714D01*
X182021240Y-56668714D02*
X182021240Y-56554428D01*
X182021240Y-56554428D02*
X181964097Y-56440142D01*
X181964097Y-56440142D02*
X181849812Y-56383000D01*
X181849812Y-56383000D02*
X181564097Y-56383000D01*
X181564097Y-56383000D02*
X181449812Y-56325857D01*
X180878383Y-56040142D02*
X180878383Y-56840142D01*
X180878383Y-56154428D02*
X180821240Y-56097285D01*
X180821240Y-56097285D02*
X180706955Y-56040142D01*
X180706955Y-56040142D02*
X180535526Y-56040142D01*
X180535526Y-56040142D02*
X180421240Y-56097285D01*
X180421240Y-56097285D02*
X180364098Y-56211571D01*
X180364098Y-56211571D02*
X180364098Y-56840142D01*
X179278384Y-56840142D02*
X179278384Y-55640142D01*
X179278384Y-56783000D02*
X179392669Y-56840142D01*
X179392669Y-56840142D02*
X179621241Y-56840142D01*
X179621241Y-56840142D02*
X179735526Y-56783000D01*
X179735526Y-56783000D02*
X179792669Y-56725857D01*
X179792669Y-56725857D02*
X179849812Y-56611571D01*
X179849812Y-56611571D02*
X179849812Y-56268714D01*
X179849812Y-56268714D02*
X179792669Y-56154428D01*
X179792669Y-56154428D02*
X179735526Y-56097285D01*
X179735526Y-56097285D02*
X179621241Y-56040142D01*
X179621241Y-56040142D02*
X179392669Y-56040142D01*
X179392669Y-56040142D02*
X179278384Y-56097285D01*
X177106955Y-56840142D02*
X177506955Y-56268714D01*
X177792669Y-56840142D02*
X177792669Y-55640142D01*
X177792669Y-55640142D02*
X177335526Y-55640142D01*
X177335526Y-55640142D02*
X177221241Y-55697285D01*
X177221241Y-55697285D02*
X177164098Y-55754428D01*
X177164098Y-55754428D02*
X177106955Y-55868714D01*
X177106955Y-55868714D02*
X177106955Y-56040142D01*
X177106955Y-56040142D02*
X177164098Y-56154428D01*
X177164098Y-56154428D02*
X177221241Y-56211571D01*
X177221241Y-56211571D02*
X177335526Y-56268714D01*
X177335526Y-56268714D02*
X177792669Y-56268714D01*
X176192669Y-56211571D02*
X176592669Y-56211571D01*
X176592669Y-56840142D02*
X176592669Y-55640142D01*
X176592669Y-55640142D02*
X176021241Y-55640142D01*
X174135527Y-56840142D02*
X174135527Y-56211571D01*
X174135527Y-56211571D02*
X174192669Y-56097285D01*
X174192669Y-56097285D02*
X174306955Y-56040142D01*
X174306955Y-56040142D02*
X174535527Y-56040142D01*
X174535527Y-56040142D02*
X174649812Y-56097285D01*
X174135527Y-56783000D02*
X174249812Y-56840142D01*
X174249812Y-56840142D02*
X174535527Y-56840142D01*
X174535527Y-56840142D02*
X174649812Y-56783000D01*
X174649812Y-56783000D02*
X174706955Y-56668714D01*
X174706955Y-56668714D02*
X174706955Y-56554428D01*
X174706955Y-56554428D02*
X174649812Y-56440142D01*
X174649812Y-56440142D02*
X174535527Y-56383000D01*
X174535527Y-56383000D02*
X174249812Y-56383000D01*
X174249812Y-56383000D02*
X174135527Y-56325857D01*
X173564098Y-56840142D02*
X173564098Y-56040142D01*
X173564098Y-56154428D02*
X173506955Y-56097285D01*
X173506955Y-56097285D02*
X173392670Y-56040142D01*
X173392670Y-56040142D02*
X173221241Y-56040142D01*
X173221241Y-56040142D02*
X173106955Y-56097285D01*
X173106955Y-56097285D02*
X173049813Y-56211571D01*
X173049813Y-56211571D02*
X173049813Y-56840142D01*
X173049813Y-56211571D02*
X172992670Y-56097285D01*
X172992670Y-56097285D02*
X172878384Y-56040142D01*
X172878384Y-56040142D02*
X172706955Y-56040142D01*
X172706955Y-56040142D02*
X172592670Y-56097285D01*
X172592670Y-56097285D02*
X172535527Y-56211571D01*
X172535527Y-56211571D02*
X172535527Y-56840142D01*
X171964098Y-56040142D02*
X171964098Y-57240142D01*
X171964098Y-56097285D02*
X171849813Y-56040142D01*
X171849813Y-56040142D02*
X171621241Y-56040142D01*
X171621241Y-56040142D02*
X171506955Y-56097285D01*
X171506955Y-56097285D02*
X171449813Y-56154428D01*
X171449813Y-56154428D02*
X171392670Y-56268714D01*
X171392670Y-56268714D02*
X171392670Y-56611571D01*
X171392670Y-56611571D02*
X171449813Y-56725857D01*
X171449813Y-56725857D02*
X171506955Y-56783000D01*
X171506955Y-56783000D02*
X171621241Y-56840142D01*
X171621241Y-56840142D02*
X171849813Y-56840142D01*
X171849813Y-56840142D02*
X171964098Y-56783000D01*
X170706956Y-56840142D02*
X170821241Y-56783000D01*
X170821241Y-56783000D02*
X170878384Y-56668714D01*
X170878384Y-56668714D02*
X170878384Y-55640142D01*
X170249813Y-56840142D02*
X170249813Y-56040142D01*
X170249813Y-55640142D02*
X170306956Y-55697285D01*
X170306956Y-55697285D02*
X170249813Y-55754428D01*
X170249813Y-55754428D02*
X170192670Y-55697285D01*
X170192670Y-55697285D02*
X170249813Y-55640142D01*
X170249813Y-55640142D02*
X170249813Y-55754428D01*
X169849813Y-56040142D02*
X169392670Y-56040142D01*
X169678384Y-56840142D02*
X169678384Y-55811571D01*
X169678384Y-55811571D02*
X169621241Y-55697285D01*
X169621241Y-55697285D02*
X169506956Y-55640142D01*
X169506956Y-55640142D02*
X169392670Y-55640142D01*
X168992670Y-56840142D02*
X168992670Y-56040142D01*
X168992670Y-55640142D02*
X169049813Y-55697285D01*
X169049813Y-55697285D02*
X168992670Y-55754428D01*
X168992670Y-55754428D02*
X168935527Y-55697285D01*
X168935527Y-55697285D02*
X168992670Y-55640142D01*
X168992670Y-55640142D02*
X168992670Y-55754428D01*
X167964098Y-56783000D02*
X168078384Y-56840142D01*
X168078384Y-56840142D02*
X168306956Y-56840142D01*
X168306956Y-56840142D02*
X168421241Y-56783000D01*
X168421241Y-56783000D02*
X168478384Y-56668714D01*
X168478384Y-56668714D02*
X168478384Y-56211571D01*
X168478384Y-56211571D02*
X168421241Y-56097285D01*
X168421241Y-56097285D02*
X168306956Y-56040142D01*
X168306956Y-56040142D02*
X168078384Y-56040142D01*
X168078384Y-56040142D02*
X167964098Y-56097285D01*
X167964098Y-56097285D02*
X167906956Y-56211571D01*
X167906956Y-56211571D02*
X167906956Y-56325857D01*
X167906956Y-56325857D02*
X168478384Y-56440142D01*
X167392670Y-56840142D02*
X167392670Y-56040142D01*
X167392670Y-56268714D02*
X167335527Y-56154428D01*
X167335527Y-56154428D02*
X167278385Y-56097285D01*
X167278385Y-56097285D02*
X167164099Y-56040142D01*
X167164099Y-56040142D02*
X167049813Y-56040142D01*
D12*
G36*
X190059480Y-65500000D02*
G01*
X189785095Y-65500000D01*
X189785095Y-65362808D01*
X190059480Y-65362808D01*
X190059480Y-65500000D01*
G37*
G36*
X190745442Y-65362808D02*
G01*
X190745442Y-65500000D01*
X190471057Y-65500000D01*
X190471057Y-65362808D01*
X190608249Y-65362808D01*
X190608249Y-65225615D01*
X190745442Y-65225615D01*
X190745442Y-65362808D01*
G37*
G36*
X191294211Y-64814038D02*
G01*
X191568596Y-64814038D01*
X191568596Y-64951230D01*
X191568596Y-65225615D01*
X191705789Y-65225615D01*
X191705789Y-64951230D01*
X191842981Y-64951230D01*
X191842981Y-65225615D01*
X192117366Y-65225615D01*
X192117366Y-65362808D01*
X192117366Y-65500000D01*
X191842981Y-65500000D01*
X191842981Y-65362808D01*
X191705789Y-65362808D01*
X191705789Y-65500000D01*
X191294211Y-65500000D01*
X191294211Y-65362808D01*
X191157019Y-65362808D01*
X191157019Y-65500000D01*
X190882634Y-65500000D01*
X190882634Y-65362808D01*
X190882634Y-65225615D01*
X191019827Y-65225615D01*
X191019827Y-65362808D01*
X191157019Y-65362808D01*
X191157019Y-65225615D01*
X191431404Y-65225615D01*
X191431404Y-64951230D01*
X191157019Y-64951230D01*
X191157019Y-64814038D01*
X191157019Y-64676846D01*
X191294211Y-64676846D01*
X191294211Y-64814038D01*
G37*
G36*
X192940520Y-65225615D02*
G01*
X192528943Y-65225615D01*
X192528943Y-64814038D01*
X192940520Y-64814038D01*
X192940520Y-65225615D01*
G37*
G36*
X193214905Y-65362808D02*
G01*
X193214905Y-65500000D01*
X192254558Y-65500000D01*
X192254558Y-65362808D01*
X192254558Y-64676846D01*
X192391751Y-64676846D01*
X192391751Y-65362808D01*
X193077713Y-65362808D01*
X193077713Y-64676846D01*
X192391751Y-64676846D01*
X192254558Y-64676846D01*
X192254558Y-64539653D01*
X193214905Y-64539653D01*
X193214905Y-64676846D01*
X193214905Y-65362808D01*
G37*
G36*
X190333865Y-65362808D02*
G01*
X190196672Y-65362808D01*
X190196672Y-65225615D01*
X190333865Y-65225615D01*
X190333865Y-65362808D01*
G37*
G36*
X190745442Y-64676846D02*
G01*
X190608249Y-64676846D01*
X190608249Y-64539653D01*
X190745442Y-64539653D01*
X190745442Y-64676846D01*
G37*
G36*
X191157019Y-64402461D02*
G01*
X191157019Y-64676846D01*
X191019827Y-64676846D01*
X191019827Y-64814038D01*
X191019827Y-64951230D01*
X190608249Y-64951230D01*
X190608249Y-65088423D01*
X190608249Y-65225615D01*
X190333865Y-65225615D01*
X190333865Y-65088423D01*
X190196672Y-65088423D01*
X190196672Y-65225615D01*
X190059480Y-65225615D01*
X190059480Y-65088423D01*
X189922287Y-65088423D01*
X189922287Y-65225615D01*
X189785095Y-65225615D01*
X189785095Y-65088423D01*
X189785095Y-64951230D01*
X189785095Y-64814038D01*
X189922287Y-64814038D01*
X190059480Y-64814038D01*
X190059480Y-64951230D01*
X190196672Y-64951230D01*
X190196672Y-64814038D01*
X190059480Y-64814038D01*
X189922287Y-64814038D01*
X189922287Y-64676846D01*
X189785095Y-64676846D01*
X189785095Y-64539653D01*
X189785095Y-64402461D01*
X189922287Y-64402461D01*
X189922287Y-64539653D01*
X190059480Y-64539653D01*
X190059480Y-64676846D01*
X190196672Y-64676846D01*
X190196672Y-64402461D01*
X190471057Y-64402461D01*
X190471057Y-64676846D01*
X190471057Y-64814038D01*
X190882634Y-64814038D01*
X190882634Y-64676846D01*
X190882634Y-64402461D01*
X190471057Y-64402461D01*
X190196672Y-64402461D01*
X190059480Y-64402461D01*
X190059480Y-64265268D01*
X190333865Y-64265268D01*
X190333865Y-64128076D01*
X190333865Y-63990884D01*
X190471057Y-63990884D01*
X190471057Y-63853691D01*
X190608249Y-63853691D01*
X190608249Y-63716499D01*
X190745442Y-63716499D01*
X190745442Y-63579306D01*
X191019827Y-63579306D01*
X191019827Y-63716499D01*
X191157019Y-63716499D01*
X191157019Y-63579306D01*
X191294211Y-63579306D01*
X191294211Y-63442114D01*
X191157019Y-63442114D01*
X191157019Y-63304922D01*
X191157019Y-63167729D01*
X191157019Y-62893344D01*
X191294211Y-62893344D01*
X191294211Y-63167729D01*
X191431404Y-63167729D01*
X191431404Y-62756152D01*
X191568596Y-62756152D01*
X191568596Y-63167729D01*
X191568596Y-63304922D01*
X191431404Y-63304922D01*
X191431404Y-63442114D01*
X191431404Y-63579306D01*
X191705789Y-63579306D01*
X191705789Y-63716499D01*
X191568596Y-63716499D01*
X191568596Y-63853691D01*
X191568596Y-63990884D01*
X191705789Y-63990884D01*
X191705789Y-63853691D01*
X191705789Y-63716499D01*
X191842981Y-63716499D01*
X191842981Y-63853691D01*
X192254558Y-63853691D01*
X192254558Y-63990884D01*
X191842981Y-63990884D01*
X191842981Y-64128076D01*
X191568596Y-64128076D01*
X191568596Y-64265268D01*
X191705789Y-64265268D01*
X191705789Y-64402461D01*
X191705789Y-64539653D01*
X191294211Y-64539653D01*
X191294211Y-64402461D01*
X191431404Y-64402461D01*
X191431404Y-64265268D01*
X191294211Y-64265268D01*
X191294211Y-64128076D01*
X191431404Y-64128076D01*
X191431404Y-63990884D01*
X191431404Y-63853691D01*
X191294211Y-63853691D01*
X191294211Y-63716499D01*
X191157019Y-63716499D01*
X191157019Y-63853691D01*
X191019827Y-63853691D01*
X191019827Y-64128076D01*
X190882634Y-64128076D01*
X190882634Y-63853691D01*
X190745442Y-63853691D01*
X190745442Y-63990884D01*
X190745442Y-64128076D01*
X190471057Y-64128076D01*
X190471057Y-64265268D01*
X190745442Y-64265268D01*
X190745442Y-64128076D01*
X190882634Y-64128076D01*
X190882634Y-64265268D01*
X191019827Y-64265268D01*
X191019827Y-64402461D01*
X191157019Y-64402461D01*
G37*
G36*
X191157019Y-65225615D02*
G01*
X191019827Y-65225615D01*
X191019827Y-65088423D01*
X191157019Y-65088423D01*
X191157019Y-65225615D01*
G37*
G36*
X192117366Y-65088423D02*
G01*
X191980173Y-65088423D01*
X191980173Y-64951230D01*
X192117366Y-64951230D01*
X192117366Y-65088423D01*
G37*
G36*
X192254558Y-64265268D02*
G01*
X192391751Y-64265268D01*
X192391751Y-64402461D01*
X192117366Y-64402461D01*
X192117366Y-64539653D01*
X192117366Y-64676846D01*
X191980173Y-64676846D01*
X191980173Y-64814038D01*
X191568596Y-64814038D01*
X191568596Y-64676846D01*
X191705789Y-64676846D01*
X191705789Y-64539653D01*
X191842981Y-64539653D01*
X191842981Y-64402461D01*
X191980173Y-64402461D01*
X191980173Y-64265268D01*
X192117366Y-64265268D01*
X192117366Y-64128076D01*
X192254558Y-64128076D01*
X192254558Y-64265268D01*
G37*
G36*
X193077713Y-64265268D02*
G01*
X193214905Y-64265268D01*
X193214905Y-64402461D01*
X192940520Y-64402461D01*
X192940520Y-64265268D01*
X192940520Y-64128076D01*
X193077713Y-64128076D01*
X193077713Y-64265268D01*
G37*
G36*
X190059480Y-64265268D02*
G01*
X189922287Y-64265268D01*
X189922287Y-64128076D01*
X190059480Y-64128076D01*
X190059480Y-64265268D01*
G37*
G36*
X190059480Y-63853691D02*
G01*
X189922287Y-63853691D01*
X189922287Y-64128076D01*
X189785095Y-64128076D01*
X189785095Y-63853691D01*
X189785095Y-63716499D01*
X190059480Y-63716499D01*
X190059480Y-63853691D01*
G37*
G36*
X190333865Y-63853691D02*
G01*
X190333865Y-63990884D01*
X190196672Y-63990884D01*
X190196672Y-64128076D01*
X190059480Y-64128076D01*
X190059480Y-63990884D01*
X190059480Y-63853691D01*
X190196672Y-63853691D01*
X190196672Y-63716499D01*
X190333865Y-63716499D01*
X190333865Y-63853691D01*
G37*
G36*
X191294211Y-64128076D02*
G01*
X191157019Y-64128076D01*
X191157019Y-63990884D01*
X191294211Y-63990884D01*
X191294211Y-64128076D01*
G37*
G36*
X192528943Y-64128076D02*
G01*
X192254558Y-64128076D01*
X192254558Y-63990884D01*
X192528943Y-63990884D01*
X192528943Y-64128076D01*
G37*
G36*
X192803328Y-64128076D02*
G01*
X192666135Y-64128076D01*
X192666135Y-63990884D01*
X192803328Y-63990884D01*
X192803328Y-64128076D01*
G37*
G36*
X193214905Y-64128076D02*
G01*
X193077713Y-64128076D01*
X193077713Y-63990884D01*
X193214905Y-63990884D01*
X193214905Y-64128076D01*
G37*
G36*
X192666135Y-63990884D02*
G01*
X192528943Y-63990884D01*
X192528943Y-63853691D01*
X192666135Y-63853691D01*
X192666135Y-63990884D01*
G37*
G36*
X192940520Y-63990884D02*
G01*
X192803328Y-63990884D01*
X192803328Y-63853691D01*
X192940520Y-63853691D01*
X192940520Y-63990884D01*
G37*
G36*
X192528943Y-63716499D02*
G01*
X192528943Y-63853691D01*
X192254558Y-63853691D01*
X192254558Y-63716499D01*
X192391751Y-63716499D01*
X192391751Y-63579306D01*
X192528943Y-63579306D01*
X192528943Y-63716499D01*
G37*
G36*
X193214905Y-63304922D02*
G01*
X193214905Y-63716499D01*
X193214905Y-63853691D01*
X192940520Y-63853691D01*
X192940520Y-63716499D01*
X193077713Y-63716499D01*
X193077713Y-63304922D01*
X192940520Y-63304922D01*
X192940520Y-63167729D01*
X193214905Y-63167729D01*
X193214905Y-63304922D01*
G37*
G36*
X190471057Y-63716499D02*
G01*
X190333865Y-63716499D01*
X190333865Y-63579306D01*
X190471057Y-63579306D01*
X190471057Y-63716499D01*
G37*
G36*
X191980173Y-63716499D02*
G01*
X191842981Y-63716499D01*
X191842981Y-63579306D01*
X191980173Y-63579306D01*
X191980173Y-63716499D01*
G37*
G36*
X192803328Y-63716499D02*
G01*
X192666135Y-63716499D01*
X192666135Y-63579306D01*
X192803328Y-63579306D01*
X192803328Y-63716499D01*
G37*
G36*
X189922287Y-63442114D02*
G01*
X190059480Y-63442114D01*
X190059480Y-63579306D01*
X189785095Y-63579306D01*
X189785095Y-63442114D01*
X189785095Y-63304922D01*
X189922287Y-63304922D01*
X189922287Y-63442114D01*
G37*
G36*
X192117366Y-62893344D02*
G01*
X192117366Y-63030537D01*
X192117366Y-63167729D01*
X191980173Y-63167729D01*
X191980173Y-63304922D01*
X192117366Y-63304922D01*
X192117366Y-63167729D01*
X192391751Y-63167729D01*
X192391751Y-63304922D01*
X192254558Y-63304922D01*
X192254558Y-63442114D01*
X192391751Y-63442114D01*
X192391751Y-63579306D01*
X192117366Y-63579306D01*
X192117366Y-63442114D01*
X191842981Y-63442114D01*
X191842981Y-63579306D01*
X191705789Y-63579306D01*
X191705789Y-63442114D01*
X191705789Y-63304922D01*
X191842981Y-63304922D01*
X191842981Y-63167729D01*
X191842981Y-63030537D01*
X191980173Y-63030537D01*
X191980173Y-62893344D01*
X191842981Y-62893344D01*
X191842981Y-62618960D01*
X192117366Y-62618960D01*
X192117366Y-62893344D01*
G37*
G36*
X192666135Y-63579306D02*
G01*
X192528943Y-63579306D01*
X192528943Y-63442114D01*
X192666135Y-63442114D01*
X192666135Y-63579306D01*
G37*
G36*
X192940520Y-63579306D02*
G01*
X192803328Y-63579306D01*
X192803328Y-63304922D01*
X192940520Y-63304922D01*
X192940520Y-63579306D01*
G37*
G36*
X191294211Y-62756152D02*
G01*
X191157019Y-62756152D01*
X191157019Y-62893344D01*
X191019827Y-62893344D01*
X191019827Y-63304922D01*
X191019827Y-63442114D01*
X190608249Y-63442114D01*
X190608249Y-63304922D01*
X190333865Y-63304922D01*
X190333865Y-63167729D01*
X190745442Y-63167729D01*
X190745442Y-63304922D01*
X190882634Y-63304922D01*
X190882634Y-62893344D01*
X190882634Y-62756152D01*
X190882634Y-62618960D01*
X191294211Y-62618960D01*
X191294211Y-62756152D01*
G37*
G36*
X190196672Y-63304922D02*
G01*
X189922287Y-63304922D01*
X189922287Y-63167729D01*
X190196672Y-63167729D01*
X190196672Y-63304922D01*
G37*
G36*
X192803328Y-63304922D02*
G01*
X192666135Y-63304922D01*
X192666135Y-63167729D01*
X192803328Y-63167729D01*
X192803328Y-63304922D01*
G37*
G36*
X190471057Y-62756152D02*
G01*
X190059480Y-62756152D01*
X190059480Y-62344575D01*
X190471057Y-62344575D01*
X190471057Y-62756152D01*
G37*
G36*
X190745442Y-62893344D02*
G01*
X190745442Y-63030537D01*
X189785095Y-63030537D01*
X189785095Y-62893344D01*
X189785095Y-62207382D01*
X189922287Y-62207382D01*
X189922287Y-62893344D01*
X190608249Y-62893344D01*
X190608249Y-62207382D01*
X189922287Y-62207382D01*
X189785095Y-62207382D01*
X189785095Y-62070190D01*
X190745442Y-62070190D01*
X190745442Y-62207382D01*
X190745442Y-62893344D01*
G37*
G36*
X191842981Y-63030537D02*
G01*
X191705789Y-63030537D01*
X191705789Y-62893344D01*
X191842981Y-62893344D01*
X191842981Y-63030537D01*
G37*
G36*
X192940520Y-62756152D02*
G01*
X192528943Y-62756152D01*
X192528943Y-62344575D01*
X192940520Y-62344575D01*
X192940520Y-62756152D01*
G37*
G36*
X193214905Y-62893344D02*
G01*
X193214905Y-63030537D01*
X192254558Y-63030537D01*
X192254558Y-62893344D01*
X192254558Y-62207382D01*
X192391751Y-62207382D01*
X192391751Y-62893344D01*
X193077713Y-62893344D01*
X193077713Y-62207382D01*
X192391751Y-62207382D01*
X192254558Y-62207382D01*
X192254558Y-62070190D01*
X193214905Y-62070190D01*
X193214905Y-62207382D01*
X193214905Y-62893344D01*
G37*
G36*
X191705789Y-62756152D02*
G01*
X191568596Y-62756152D01*
X191568596Y-62618960D01*
X191705789Y-62618960D01*
X191705789Y-62756152D01*
G37*
G36*
X191980173Y-62207382D02*
G01*
X192117366Y-62207382D01*
X192117366Y-62344575D01*
X192117366Y-62481767D01*
X191980173Y-62481767D01*
X191980173Y-62344575D01*
X191842981Y-62344575D01*
X191842981Y-62207382D01*
X191705789Y-62207382D01*
X191705789Y-62344575D01*
X191705789Y-62481767D01*
X191568596Y-62481767D01*
X191568596Y-62618960D01*
X191431404Y-62618960D01*
X191431404Y-62481767D01*
X191431404Y-62344575D01*
X191568596Y-62344575D01*
X191568596Y-62207382D01*
X191568596Y-62070190D01*
X191980173Y-62070190D01*
X191980173Y-62207382D01*
G37*
G36*
X191842981Y-62618960D02*
G01*
X191705789Y-62618960D01*
X191705789Y-62481767D01*
X191842981Y-62481767D01*
X191842981Y-62618960D01*
G37*
G36*
X191431404Y-62207382D02*
G01*
X191294211Y-62207382D01*
X191294211Y-62481767D01*
X191019827Y-62481767D01*
X191019827Y-62207382D01*
X191019827Y-62070190D01*
X191431404Y-62070190D01*
X191431404Y-62207382D01*
G37*
%LPC*%
D13*
%TO.C,TP501*%
X196150000Y-86200000D03*
X193610000Y-86200000D03*
%TD*%
D14*
%TO.C,J505*%
X200800000Y-80600000D03*
D15*
X200800000Y-78060000D03*
%TD*%
D16*
%TO.C,J502*%
X134100000Y-59450000D03*
D15*
X134100000Y-61990000D03*
%TD*%
D16*
%TO.C,J504*%
X134150000Y-72650000D03*
D15*
X134150000Y-75190000D03*
%TD*%
D14*
%TO.C,J501*%
X200750000Y-66150000D03*
D15*
X200750000Y-63610000D03*
%TD*%
D16*
%TO.C,J503*%
X134150000Y-66025000D03*
D15*
X134150000Y-68565000D03*
%TD*%
D17*
%TO.C,J506*%
X132410121Y-84785000D03*
X132410121Y-79135000D03*
%TD*%
D18*
%TO.C,H501*%
X134000000Y-55000000D03*
%TD*%
D13*
%TO.C,TP502*%
X196150000Y-73500000D03*
X193610000Y-73500000D03*
%TD*%
D18*
%TO.C,H502*%
X201000000Y-55000000D03*
%TD*%
%TO.C,H504*%
X201000000Y-89000000D03*
%TD*%
%TO.C,H503*%
X134000000Y-89000000D03*
%TD*%
%LPD*%
M02*
